M48
; DRILL file {KiCad 9.0.0} date 2025-06-23T10:55:20-0300
; FORMAT={-:-/ absolute / metric / decimal}
; #@! TF.CreationDate,2025-06-23T10:55:20-03:00
; #@! TF.GenerationSoftware,Kicad,Pcbnew,9.0.0
; #@! TF.FileFunction,Plated,1,2,PTH
FMAT,2
METRIC
; #@! TA.AperFunction,Plated,PTH,ViaDrill
T1C0.300
; #@! TA.AperFunction,Plated,PTH,ComponentDrill
T2C0.762
; #@! TA.AperFunction,Plated,PTH,ComponentDrill
T3C0.900
; #@! TA.AperFunction,Plated,PTH,ComponentDrill
T4C1.000
; #@! TA.AperFunction,Plated,PTH,ComponentDrill
T5C1.100
; #@! TA.AperFunction,Plated,PTH,ComponentDrill
T6C1.300
; #@! TA.AperFunction,Plated,PTH,ComponentDrill
T7C1.500
%
G90
G05
T1
X154.9Y-81.23
X154.9Y-84.58
X162.98Y-100.62
X164.19Y-95.21
X164.48Y-96.533
X165.09Y-87.53
X165.09Y-84.39
X168.15Y-96.32
X168.27Y-95.12
X172.26Y-102.44
X177.53Y-86.83
X178.97Y-81.48
X179.03Y-84.77
X193.04Y-67.97
X193.04Y-71.19
X193.67Y-81.4
X193.873Y-78.94
X195.96Y-78.96
X196.13Y-80.82
X201.234Y-90.234
X210.68Y-97.98
X213.86Y-104.6
X216.59Y-104.64
X216.72Y-98.27
X217.62Y-91.53
X218.26Y-92.23
X218.7Y-104.72
X222.12Y-72.2
X222.14Y-92.75
X222.15Y-110.08
X222.2Y-106.22
X223.34Y-72.28
X224.56Y-100.01
X225.27Y-110.57
X226.77Y-92.59
X227.04Y-84.24
X228.87Y-60.01
X229.2Y-92.64
X230.63Y-71.33
X232.2Y-57.98
X233.07Y-81.42
X233.367Y-83.617
X234.25Y-82.41
X234.707Y-84.673
X236.421Y-81.67
X236.52Y-74.01
X236.56Y-70.32
X236.7Y-64.75
X237.4Y-44.57
X237.4Y-47.87
X242.81Y-28.01
X245.19Y-100.65
X245.68Y-94.6
X245.96Y-98.08
X246.48Y-36.9
X246.55Y-19.75
X246.9Y-64.37
X248.37Y-36.85
X248.52Y-90.77
X248.58Y-109.5
X249.2Y-101.12
X249.45Y-106.69
X249.55Y-44.81
X249.55Y-47.99
X249.65Y-99.52
X250.37Y-101.8
X252.93Y-90.69
X255.03Y-88.55
X255.41Y-73.29
X255.58Y-66.35
X255.63Y-68.18
X256.48Y-76.79
X257.3Y-54.28
X257.49Y-57.65
X257.75Y-68.83
X257.76Y-80.53
X257.81Y-116.31
X258.62Y-90.04
X259.83Y-70.37
X260.74Y-102.16
T2
X236.345Y-23.455
X238.885Y-20.915
X238.885Y-25.995
T3
X236.38Y-32.67
X238.92Y-30.13
X241.46Y-32.67
T4
X159.0Y-16.5
X159.0Y-51.5
X169.5Y-28.5
X169.5Y-40.0
X193.0Y-16.5
X193.0Y-51.5
X203.5Y-28.5
X203.5Y-40.0
X204.76Y-15.35
X204.76Y-17.89
X254.76Y-15.35
X254.76Y-17.89
T5
X211.5Y-35.0
X215.092Y-31.408
X215.092Y-38.592
X218.684Y-35.0
X219.44Y-87.23
X219.44Y-89.77
X221.98Y-87.23
X221.98Y-89.77
X224.52Y-87.23
X224.52Y-89.77
X227.06Y-87.23
X227.06Y-89.77
X229.6Y-87.23
X229.6Y-89.77
X232.14Y-87.23
X232.14Y-89.77
X236.87Y-58.7
X236.87Y-61.24
X239.41Y-58.7
X239.41Y-61.24
X241.95Y-58.7
X241.95Y-61.24
X244.49Y-58.7
X244.49Y-61.24
X247.03Y-58.7
X247.03Y-61.24
X249.57Y-58.7
X249.57Y-61.24
T6
X156.369Y-117.93
X161.37Y-117.93
X166.369Y-117.93
X171.37Y-117.93
X176.369Y-117.93
X181.37Y-117.93
X191.259Y-118.08
X196.26Y-118.08
X201.259Y-118.08
X206.26Y-118.08
X211.259Y-118.08
X216.26Y-118.08
T7
X159.0Y-25.53
X159.0Y-42.5
M30
