G04 #@! TF.GenerationSoftware,KiCad,Pcbnew,9.0.0*
G04 #@! TF.CreationDate,2025-06-23T10:53:37-03:00*
G04 #@! TF.ProjectId,GatewayV1,47617465-7761-4795-9631-2e6b69636164,rev?*
G04 #@! TF.SameCoordinates,Original*
G04 #@! TF.FileFunction,Legend,Bot*
G04 #@! TF.FilePolarity,Positive*
%FSLAX46Y46*%
G04 Gerber Fmt 4.6, Leading zero omitted, Abs format (unit mm)*
G04 Created by KiCad (PCBNEW 9.0.0) date 2025-06-23 10:53:37*
%MOMM*%
%LPD*%
G01*
G04 APERTURE LIST*
%ADD10C,5.000000*%
%ADD11C,1.600000*%
%ADD12C,1.800000*%
%ADD13C,1.524000*%
%ADD14R,1.700000X1.700000*%
%ADD15C,1.700000*%
%ADD16C,2.000000*%
%ADD17C,2.400000*%
%ADD18O,2.400000X2.400000*%
G04 APERTURE END LIST*
%LPC*%
D10*
X159000000Y-42500000D03*
X159000000Y-25530000D03*
D11*
X218684000Y-35000000D03*
X215092000Y-31408000D03*
X211500000Y-35000000D03*
X215092000Y-38592000D03*
D12*
X236380000Y-32670000D03*
X238920000Y-30130000D03*
X241460000Y-32670000D03*
D13*
X238885034Y-25995034D03*
X236345034Y-23455034D03*
X238885034Y-20915034D03*
D14*
X236870000Y-61240000D03*
D15*
X236870000Y-58700000D03*
X239410000Y-61240000D03*
X239410000Y-58700000D03*
X241950000Y-61240000D03*
X241950000Y-58700000D03*
X244490000Y-61240000D03*
X244490000Y-58700000D03*
X247030000Y-61240000D03*
X247030000Y-58700000D03*
X249570000Y-61240000D03*
X249570000Y-58700000D03*
D14*
X219440000Y-89770000D03*
D15*
X219440000Y-87230000D03*
X221980000Y-89770000D03*
X221980000Y-87230000D03*
X224520000Y-89770000D03*
X224520000Y-87230000D03*
X227060000Y-89770000D03*
X227060000Y-87230000D03*
X229600000Y-89770000D03*
X229600000Y-87230000D03*
X232140000Y-89770000D03*
X232140000Y-87230000D03*
D16*
X191259000Y-118080000D03*
X196260000Y-118080000D03*
X201259000Y-118080000D03*
X206260000Y-118080000D03*
X211259000Y-118080000D03*
X216260000Y-118080000D03*
X156369000Y-117930000D03*
X161370000Y-117930000D03*
X166369000Y-117930000D03*
X171370000Y-117930000D03*
X176369000Y-117930000D03*
X181370000Y-117930000D03*
D17*
X169500000Y-28500000D03*
D18*
X203500000Y-28500000D03*
D16*
X204760000Y-15350000D03*
X204760000Y-17890000D03*
X254760000Y-17890000D03*
X254760000Y-15350000D03*
D17*
X159000000Y-51500000D03*
D18*
X193000000Y-51500000D03*
D17*
X169500000Y-40000000D03*
D18*
X203500000Y-40000000D03*
D17*
X159000000Y-16500000D03*
D18*
X193000000Y-16500000D03*
%LPD*%
M02*
