G04 #@! TF.GenerationSoftware,KiCad,Pcbnew,9.0.0*
G04 #@! TF.CreationDate,2025-06-23T10:53:37-03:00*
G04 #@! TF.ProjectId,GatewayV1,47617465-7761-4795-9631-2e6b69636164,rev?*
G04 #@! TF.SameCoordinates,Original*
G04 #@! TF.FileFunction,Soldermask,Top*
G04 #@! TF.FilePolarity,Negative*
%FSLAX46Y46*%
G04 Gerber Fmt 4.6, Leading zero omitted, Abs format (unit mm)*
G04 Created by KiCad (PCBNEW 9.0.0) date 2025-06-23 10:53:37*
%MOMM*%
%LPD*%
G01*
G04 APERTURE LIST*
%ADD10C,5.000000*%
%ADD11R,2.500000X1.400000*%
%ADD12R,1.400000X1.700000*%
%ADD13R,0.400000X0.900000*%
%ADD14R,0.600000X1.100000*%
%ADD15R,1.800000X0.800000*%
%ADD16R,0.800000X1.800000*%
%ADD17R,1.230000X1.360000*%
%ADD18C,1.600000*%
%ADD19R,0.800000X0.800000*%
%ADD20R,1.700000X1.600000*%
%ADD21O,1.620000X0.280000*%
%ADD22R,1.070000X0.600000*%
%ADD23O,0.588000X2.045000*%
%ADD24C,1.800000*%
%ADD25C,1.524000*%
%ADD26R,1.700000X1.700000*%
%ADD27C,1.700000*%
%ADD28C,2.000000*%
%ADD29R,0.700000X1.250000*%
%ADD30R,2.124000X3.420000*%
%ADD31R,0.750000X1.500000*%
%ADD32R,0.600000X0.200000*%
%ADD33R,0.350000X1.730000*%
%ADD34R,2.400000X3.200000*%
%ADD35R,0.864000X0.806500*%
%ADD36R,3.500000X1.200000*%
%ADD37R,1.207500X1.701000*%
%ADD38R,1.485000X1.728000*%
%ADD39R,1.728000X1.485000*%
%ADD40R,1.701000X1.207500*%
%ADD41C,2.400000*%
%ADD42O,2.400000X2.400000*%
G04 APERTURE END LIST*
D10*
X159000000Y-42500000D03*
X159000000Y-25530000D03*
D11*
X242968750Y-110041750D03*
X242968750Y-108041750D03*
X242968750Y-106041750D03*
X242968750Y-104041750D03*
X242968750Y-102041750D03*
X242968750Y-100041750D03*
X242968750Y-98041750D03*
X242967750Y-96041750D03*
X227868750Y-96041750D03*
X227867250Y-98041750D03*
X227865750Y-100041750D03*
X227866750Y-102041750D03*
X227867250Y-104041750D03*
X227866750Y-106041750D03*
X227866750Y-108041750D03*
X227866750Y-110041750D03*
D12*
X240417250Y-94740750D03*
X238419250Y-94742250D03*
X236420750Y-94741750D03*
X234419750Y-94741750D03*
X232420750Y-94741750D03*
X230420750Y-94740750D03*
D13*
X251157250Y-101142625D03*
X251807250Y-101142625D03*
X252457250Y-101142625D03*
X252457250Y-98942625D03*
X251157250Y-98942625D03*
D14*
X254550000Y-101440000D03*
X255500000Y-101440000D03*
X256450000Y-101440000D03*
X256450000Y-98840000D03*
X254550000Y-98840000D03*
D15*
X239062500Y-68410000D03*
X239062500Y-69410000D03*
X239062500Y-70410000D03*
X239062500Y-71410000D03*
X239062500Y-72410000D03*
X239062500Y-73410000D03*
X239062500Y-74410000D03*
X239062500Y-75410000D03*
X239062500Y-76410000D03*
X239062500Y-77410000D03*
X239062500Y-78410000D03*
X239062500Y-79410000D03*
D16*
X246850000Y-81658500D03*
X247850000Y-81658500D03*
X248850000Y-81658500D03*
X249850000Y-81658500D03*
D15*
X253637500Y-79410000D03*
X253637500Y-78410500D03*
X253637500Y-77410000D03*
X253637500Y-72410000D03*
X253637500Y-71410000D03*
X253637500Y-70410000D03*
X253637500Y-69410000D03*
X253637500Y-68410000D03*
D16*
X249850000Y-66521500D03*
X248850000Y-66521500D03*
X247850000Y-66521500D03*
X246850000Y-66521500D03*
X245850000Y-66521500D03*
X244850000Y-66521500D03*
X243850000Y-66521500D03*
X242850000Y-66521500D03*
D17*
X257622250Y-110571250D03*
X253252250Y-110571250D03*
D18*
X218684000Y-35000000D03*
X215092000Y-31408000D03*
X211500000Y-35000000D03*
X215092000Y-38592000D03*
D19*
X223637250Y-95186000D03*
X222038250Y-95186000D03*
D20*
X248310000Y-25400000D03*
X248310000Y-21480000D03*
D21*
X217690000Y-72920000D03*
X217690000Y-73420000D03*
X217690000Y-73920000D03*
X217690000Y-74420000D03*
X217690000Y-74920000D03*
X221910000Y-74920000D03*
X221910000Y-74420000D03*
X221910000Y-73920000D03*
X221910000Y-73420000D03*
X221910000Y-72920000D03*
D22*
X255625000Y-37280000D03*
X255625000Y-39180000D03*
X258095000Y-38230000D03*
D23*
X249885000Y-28697500D03*
X248615000Y-28697500D03*
X247345000Y-28697500D03*
X246075000Y-28697500D03*
X246075000Y-34242500D03*
X247345000Y-34242500D03*
X248615000Y-34242500D03*
X249885000Y-34242500D03*
D24*
X236380000Y-32670000D03*
X238920000Y-30130000D03*
X241460000Y-32670000D03*
D25*
X238885034Y-25995034D03*
X236345034Y-23455034D03*
X238885034Y-20915034D03*
D26*
X236870000Y-61240000D03*
D27*
X236870000Y-58700000D03*
X239410000Y-61240000D03*
X239410000Y-58700000D03*
X241950000Y-61240000D03*
X241950000Y-58700000D03*
X244490000Y-61240000D03*
X244490000Y-58700000D03*
X247030000Y-61240000D03*
X247030000Y-58700000D03*
X249570000Y-61240000D03*
X249570000Y-58700000D03*
D26*
X219440000Y-89770000D03*
D27*
X219440000Y-87230000D03*
X221980000Y-89770000D03*
X221980000Y-87230000D03*
X224520000Y-89770000D03*
X224520000Y-87230000D03*
X227060000Y-89770000D03*
X227060000Y-87230000D03*
X229600000Y-89770000D03*
X229600000Y-87230000D03*
X232140000Y-89770000D03*
X232140000Y-87230000D03*
D28*
X191259000Y-118080000D03*
X196260000Y-118080000D03*
X201259000Y-118080000D03*
X206260000Y-118080000D03*
X211259000Y-118080000D03*
X216260000Y-118080000D03*
X156369000Y-117930000D03*
X161370000Y-117930000D03*
X166369000Y-117930000D03*
X171370000Y-117930000D03*
X176369000Y-117930000D03*
X181370000Y-117930000D03*
D29*
X209330000Y-111200000D03*
X211230000Y-111200000D03*
X210280000Y-109200000D03*
X199440000Y-111070000D03*
X201340000Y-111070000D03*
X200390000Y-109070000D03*
X189240000Y-110940000D03*
X191140000Y-110940000D03*
X190190000Y-108940000D03*
D30*
X198592000Y-83357500D03*
X208548000Y-83357500D03*
D31*
X192170000Y-82727500D03*
D32*
X192070000Y-83777500D03*
X192070000Y-84227500D03*
X192070000Y-84677500D03*
X193770000Y-84677500D03*
X193770000Y-84227500D03*
X193770000Y-83777500D03*
D31*
X193670000Y-82727500D03*
D33*
X192920000Y-82612500D03*
D31*
X162980000Y-98202500D03*
D32*
X162880000Y-99252500D03*
X162880000Y-99702500D03*
X162880000Y-100152500D03*
X164580000Y-100152500D03*
X164580000Y-99702500D03*
X164580000Y-99252500D03*
D31*
X164480000Y-98202500D03*
D33*
X163730000Y-98087500D03*
D34*
X169730000Y-98620000D03*
X175730000Y-98620000D03*
D35*
X216280000Y-89480000D03*
X216280000Y-87973000D03*
X216350000Y-93220000D03*
X216350000Y-91713000D03*
D36*
X205355868Y-92535828D03*
X200015868Y-92535828D03*
X205560000Y-73770000D03*
X200220000Y-73770000D03*
X175400000Y-106120000D03*
X170060000Y-106120000D03*
X175400000Y-90870000D03*
X170060000Y-90870000D03*
D37*
X247777250Y-111251250D03*
X250735250Y-111251250D03*
D38*
X256119750Y-92841250D03*
X252934750Y-92841250D03*
D39*
X195890000Y-86290000D03*
X195890000Y-83105000D03*
D38*
X247324750Y-92861250D03*
X250509750Y-92861250D03*
D39*
X227700000Y-70357125D03*
X227700000Y-73542125D03*
D37*
X186251000Y-106540000D03*
X189209000Y-106540000D03*
D38*
X193872500Y-77687500D03*
X190687500Y-77687500D03*
D40*
X215200000Y-73229000D03*
X215200000Y-70271000D03*
X257720000Y-70299000D03*
X257720000Y-67341000D03*
D37*
X223559000Y-107790000D03*
X220601000Y-107790000D03*
D40*
X252800000Y-39969000D03*
X252800000Y-37011000D03*
D37*
X195471000Y-103260000D03*
X198429000Y-103260000D03*
D39*
X241167250Y-88708750D03*
X241167250Y-91893750D03*
X244850000Y-21667500D03*
X244850000Y-24852500D03*
D38*
X165802500Y-95210000D03*
X162617500Y-95210000D03*
D40*
X160760000Y-102881000D03*
X160760000Y-105839000D03*
X201010000Y-103481000D03*
X201010000Y-106439000D03*
D37*
X204801000Y-103430000D03*
X207759000Y-103430000D03*
D40*
X157380000Y-97899000D03*
X157380000Y-94941000D03*
D39*
X224880000Y-70357125D03*
X224880000Y-73542125D03*
D37*
X255916250Y-95701250D03*
X252958250Y-95701250D03*
X224216250Y-98261250D03*
X221258250Y-98261250D03*
D38*
X257572500Y-21670000D03*
X254387500Y-21670000D03*
X254407500Y-24470000D03*
X257592500Y-24470000D03*
D37*
X257618000Y-27330000D03*
X254660000Y-27330000D03*
D38*
X193885000Y-80157500D03*
X190700000Y-80157500D03*
D37*
X186191000Y-103300000D03*
X189149000Y-103300000D03*
D38*
X189317500Y-87417500D03*
X192502500Y-87417500D03*
D37*
X247618250Y-95771250D03*
X250576250Y-95771250D03*
D40*
X257700000Y-75339000D03*
X257700000Y-72381000D03*
D39*
X243807250Y-88608750D03*
X243807250Y-91793750D03*
D37*
X158001000Y-100120000D03*
X160959000Y-100120000D03*
D40*
X210530000Y-103581000D03*
X210530000Y-106539000D03*
X247767250Y-99621250D03*
X247767250Y-102579250D03*
X238467250Y-91650250D03*
X238467250Y-88692250D03*
D37*
X204851000Y-106710000D03*
X207809000Y-106710000D03*
D40*
X159970000Y-97979000D03*
X159970000Y-95021000D03*
D39*
X166760000Y-101685000D03*
X166760000Y-98500000D03*
D37*
X257319000Y-34100000D03*
X254361000Y-34100000D03*
X223439000Y-101890000D03*
X220481000Y-101890000D03*
D39*
X163350000Y-102957500D03*
X163350000Y-106142500D03*
D40*
X251540000Y-24589000D03*
X251540000Y-21631000D03*
D38*
X254347500Y-60160000D03*
X257532500Y-60160000D03*
D40*
X191710000Y-103481000D03*
X191710000Y-106439000D03*
D37*
X254340000Y-30710000D03*
X257298000Y-30710000D03*
X195501000Y-106640000D03*
X198459000Y-106640000D03*
D38*
X254327500Y-63110000D03*
X257512500Y-63110000D03*
D40*
X247917250Y-107940250D03*
X247917250Y-104982250D03*
D37*
X223529000Y-104630000D03*
X220571000Y-104630000D03*
X219391000Y-70459625D03*
X222349000Y-70459625D03*
D39*
X256087250Y-107035125D03*
X256087250Y-103850125D03*
D37*
X250878250Y-106702625D03*
X253836250Y-106702625D03*
X253826250Y-103942625D03*
X250868250Y-103942625D03*
X186241000Y-84857500D03*
X189199000Y-84857500D03*
D40*
X184110000Y-82656500D03*
X184110000Y-79698500D03*
X187020000Y-82486500D03*
X187020000Y-79528500D03*
D37*
X189511000Y-89897500D03*
X192469000Y-89897500D03*
D41*
X169500000Y-28500000D03*
D42*
X203500000Y-28500000D03*
D28*
X204760000Y-15350000D03*
X204760000Y-17890000D03*
X254760000Y-17890000D03*
X254760000Y-15350000D03*
D41*
X159000000Y-51500000D03*
D42*
X193000000Y-51500000D03*
D41*
X169500000Y-40000000D03*
D42*
X203500000Y-40000000D03*
D41*
X159000000Y-16500000D03*
D42*
X193000000Y-16500000D03*
M02*
