G04 #@! TF.GenerationSoftware,KiCad,Pcbnew,9.0.0*
G04 #@! TF.CreationDate,2025-06-23T10:53:36-03:00*
G04 #@! TF.ProjectId,GatewayV1,47617465-7761-4795-9631-2e6b69636164,rev?*
G04 #@! TF.SameCoordinates,Original*
G04 #@! TF.FileFunction,Copper,L2,Bot*
G04 #@! TF.FilePolarity,Positive*
%FSLAX46Y46*%
G04 Gerber Fmt 4.6, Leading zero omitted, Abs format (unit mm)*
G04 Created by KiCad (PCBNEW 9.0.0) date 2025-06-23 10:53:36*
%MOMM*%
%LPD*%
G01*
G04 APERTURE LIST*
G04 #@! TA.AperFunction,ComponentPad*
%ADD10C,5.000000*%
G04 #@! TD*
G04 #@! TA.AperFunction,ComponentPad*
%ADD11C,1.600000*%
G04 #@! TD*
G04 #@! TA.AperFunction,ComponentPad*
%ADD12C,1.800000*%
G04 #@! TD*
G04 #@! TA.AperFunction,ComponentPad*
%ADD13C,1.524000*%
G04 #@! TD*
G04 #@! TA.AperFunction,ComponentPad*
%ADD14R,1.700000X1.700000*%
G04 #@! TD*
G04 #@! TA.AperFunction,ComponentPad*
%ADD15C,1.700000*%
G04 #@! TD*
G04 #@! TA.AperFunction,ComponentPad*
%ADD16C,2.000000*%
G04 #@! TD*
G04 #@! TA.AperFunction,ComponentPad*
%ADD17C,2.400000*%
G04 #@! TD*
G04 #@! TA.AperFunction,ComponentPad*
%ADD18O,2.400000X2.400000*%
G04 #@! TD*
G04 #@! TA.AperFunction,ViaPad*
%ADD19C,0.600000*%
G04 #@! TD*
G04 #@! TA.AperFunction,Conductor*
%ADD20C,0.500000*%
G04 #@! TD*
G04 #@! TA.AperFunction,Conductor*
%ADD21C,0.200000*%
G04 #@! TD*
G04 #@! TA.AperFunction,Conductor*
%ADD22C,1.500000*%
G04 #@! TD*
G04 #@! TA.AperFunction,Conductor*
%ADD23C,0.300000*%
G04 #@! TD*
G04 APERTURE END LIST*
D10*
X159000000Y-42500000D03*
X159000000Y-25530000D03*
D11*
X218684000Y-35000000D03*
X215092000Y-31408000D03*
X211500000Y-35000000D03*
X215092000Y-38592000D03*
D12*
X236380000Y-32670000D03*
X238920000Y-30130000D03*
X241460000Y-32670000D03*
D13*
X238885034Y-25995034D03*
X236345034Y-23455034D03*
X238885034Y-20915034D03*
D14*
X236870000Y-61240000D03*
D15*
X236870000Y-58700000D03*
X239410000Y-61240000D03*
X239410000Y-58700000D03*
X241950000Y-61240000D03*
X241950000Y-58700000D03*
X244490000Y-61240000D03*
X244490000Y-58700000D03*
X247030000Y-61240000D03*
X247030000Y-58700000D03*
X249570000Y-61240000D03*
X249570000Y-58700000D03*
D14*
X219440000Y-89770000D03*
D15*
X219440000Y-87230000D03*
X221980000Y-89770000D03*
X221980000Y-87230000D03*
X224520000Y-89770000D03*
X224520000Y-87230000D03*
X227060000Y-89770000D03*
X227060000Y-87230000D03*
X229600000Y-89770000D03*
X229600000Y-87230000D03*
X232140000Y-89770000D03*
X232140000Y-87230000D03*
D16*
X191259000Y-118080000D03*
X196260000Y-118080000D03*
X201259000Y-118080000D03*
X206260000Y-118080000D03*
X211259000Y-118080000D03*
X216260000Y-118080000D03*
X156369000Y-117930000D03*
X161370000Y-117930000D03*
X166369000Y-117930000D03*
X171370000Y-117930000D03*
X176369000Y-117930000D03*
X181370000Y-117930000D03*
D17*
X169500000Y-28500000D03*
D18*
X203500000Y-28500000D03*
D16*
X204760000Y-15350000D03*
X204760000Y-17890000D03*
X254760000Y-17890000D03*
X254760000Y-15350000D03*
D17*
X159000000Y-51500000D03*
D18*
X193000000Y-51500000D03*
D17*
X169500000Y-40000000D03*
D18*
X203500000Y-40000000D03*
D17*
X159000000Y-16500000D03*
D18*
X193000000Y-16500000D03*
D19*
X245680000Y-94600000D03*
X217620000Y-91530000D03*
X218260000Y-92230000D03*
X222120000Y-72200000D03*
X223340000Y-72280000D03*
X257810000Y-116310000D03*
X258620000Y-90040000D03*
X177530000Y-86830000D03*
X246480000Y-36900000D03*
X228870000Y-60010000D03*
X230630000Y-71330000D03*
X248370000Y-36850000D03*
X256479640Y-76789641D03*
X237400000Y-47870000D03*
X178970000Y-81480000D03*
X249550000Y-44810000D03*
X201233750Y-90233750D03*
X168270000Y-95120000D03*
X193670000Y-81400000D03*
X246550000Y-19750000D03*
X172260000Y-102440000D03*
X195960000Y-78960000D03*
X246900000Y-64370000D03*
X179030000Y-84770000D03*
X193040000Y-71190000D03*
X255580000Y-66350000D03*
X165090000Y-84390000D03*
X165089998Y-87530001D03*
X164479998Y-96532501D03*
X193872500Y-78940000D03*
X249550000Y-47990000D03*
X154900000Y-81230000D03*
X255630000Y-68180000D03*
X196130000Y-80820000D03*
X168150000Y-96320000D03*
X242810000Y-28010000D03*
X154900000Y-84580000D03*
X237400000Y-44570000D03*
X164190000Y-95210000D03*
X162980000Y-100620000D03*
X193040000Y-67970000D03*
X257300000Y-54280000D03*
X210680000Y-97980000D03*
X218700000Y-104720000D03*
X252930000Y-90690000D03*
X257750000Y-68830000D03*
X257490000Y-57650000D03*
X213860000Y-104600000D03*
X216590000Y-104640000D03*
X255030000Y-88550000D03*
X248520000Y-90770000D03*
X232200000Y-57980000D03*
X257760000Y-80530000D03*
X236420750Y-81670000D03*
X236520000Y-74010000D03*
X222200000Y-106220000D03*
X234250000Y-82410000D03*
X236560000Y-70320000D03*
X236700000Y-64750000D03*
X259830000Y-70370000D03*
X234706551Y-84673449D03*
X233366910Y-83617452D03*
X255410000Y-73290000D03*
X233070000Y-81420000D03*
X222150000Y-110080000D03*
X245190000Y-100650000D03*
X249450000Y-106690000D03*
X224560000Y-100010000D03*
X249200000Y-101120000D03*
X260740000Y-102160000D03*
X225270000Y-110570000D03*
X227040000Y-84240000D03*
X248580000Y-109499750D03*
X245960000Y-98080000D03*
X216720000Y-98270000D03*
X226770000Y-92590000D03*
X229200000Y-92640000D03*
X222140000Y-92750000D03*
X250370000Y-101800000D03*
X249650000Y-99520000D03*
D20*
X257490000Y-54470000D02*
X257490000Y-57650000D01*
D21*
X220710000Y-88500000D02*
X221980000Y-87230000D01*
X219982000Y-91530000D02*
X220710000Y-90802000D01*
X220710000Y-90802000D02*
X220710000Y-88500000D01*
X217620000Y-91530000D02*
X219982000Y-91530000D01*
X220300000Y-92230000D02*
X221980000Y-90550000D01*
X218260000Y-92230000D02*
X220300000Y-92230000D01*
X221980000Y-90550000D02*
X221980000Y-89770000D01*
X223150000Y-80370000D02*
X224200000Y-81420000D01*
X223150000Y-73230000D02*
X223150000Y-80370000D01*
X222120000Y-72200000D02*
X223150000Y-73230000D01*
X224200000Y-81420000D02*
X221170000Y-81420000D01*
X234250000Y-79760000D02*
X234250000Y-82410000D01*
X226770000Y-72280000D02*
X234250000Y-79760000D01*
X223340000Y-72280000D02*
X226770000Y-72280000D01*
D22*
X159000000Y-42500000D02*
X159000000Y-51500000D01*
X172000000Y-46000000D02*
X169500000Y-43500000D01*
X193000000Y-51500000D02*
X193000000Y-48500000D01*
X169500000Y-43500000D02*
X169500000Y-40000000D01*
X193000000Y-48500000D02*
X190500000Y-46000000D01*
X190500000Y-46000000D02*
X172000000Y-46000000D01*
X169500000Y-26000000D02*
X169500000Y-28500000D01*
X193000000Y-16500000D02*
X193000000Y-19500000D01*
X193000000Y-19500000D02*
X190000000Y-22500000D01*
X173000000Y-22500000D02*
X169500000Y-26000000D01*
X190000000Y-22500000D02*
X173000000Y-22500000D01*
X212184000Y-28500000D02*
X203500000Y-28500000D01*
X215092000Y-31408000D02*
X212184000Y-28500000D01*
X213684000Y-40000000D02*
X215092000Y-38592000D01*
X203500000Y-40000000D02*
X213684000Y-40000000D01*
X159000000Y-25530000D02*
X159000000Y-16500000D01*
X220470000Y-33214000D02*
X220470000Y-21700000D01*
X220470000Y-21700000D02*
X216660000Y-17890000D01*
X218684000Y-35000000D02*
X220470000Y-33214000D01*
X216660000Y-17890000D02*
X204760000Y-17890000D01*
D21*
X230630000Y-71330000D02*
X230520000Y-71220000D01*
X230520000Y-61610000D02*
X228860000Y-59950000D01*
X228860000Y-59950000D02*
X228860000Y-60000000D01*
X246530000Y-36850000D02*
X246480000Y-36900000D01*
D23*
X230520000Y-71220000D02*
X230520000Y-61610000D01*
D20*
X248370000Y-36850000D02*
X246530000Y-36850000D01*
D21*
X228860000Y-60000000D02*
X228870000Y-60010000D01*
D22*
X211150000Y-34650000D02*
X201940000Y-34650000D01*
X201940000Y-34650000D02*
X196680000Y-29390000D01*
X196680000Y-29390000D02*
X196680000Y-20890000D01*
X196680000Y-20890000D02*
X202220000Y-15350000D01*
X202220000Y-15350000D02*
X204760000Y-15350000D01*
X211500000Y-35000000D02*
X211150000Y-34650000D01*
D21*
X256870000Y-76399281D02*
X256479640Y-76789641D01*
X251260000Y-56930000D02*
X256870000Y-62540000D01*
X243720000Y-56930000D02*
X251260000Y-56930000D01*
X256870000Y-62540000D02*
X256870000Y-76399281D01*
X241950000Y-58700000D02*
X243720000Y-56930000D01*
X255580000Y-66210000D02*
X255580000Y-66350000D01*
X246900000Y-64370000D02*
X253680000Y-64370000D01*
X255630000Y-66400000D02*
X255580000Y-66350000D01*
X234620000Y-86310000D02*
X234660000Y-86350000D01*
X253680000Y-64370000D02*
X253710000Y-64340000D01*
X255630000Y-68180000D02*
X255630000Y-66400000D01*
X253710000Y-64340000D02*
X255580000Y-66210000D01*
X257490000Y-54470000D02*
X257300000Y-54280000D01*
X248520000Y-90770000D02*
X248490000Y-90740000D01*
D20*
X213860000Y-101160000D02*
X210680000Y-97980000D01*
X218700000Y-104720000D02*
X216670000Y-104720000D01*
X257750000Y-68830000D02*
X257750000Y-80520000D01*
D21*
X252930000Y-90650000D02*
X252930000Y-90690000D01*
D20*
X252948629Y-54350000D02*
X253611371Y-54350000D01*
X213860000Y-104600000D02*
X213860000Y-101160000D01*
X253611371Y-54350000D02*
X253681371Y-54280000D01*
D21*
X252930000Y-90690000D02*
X252850000Y-90770000D01*
D20*
X252878629Y-54280000D02*
X252948629Y-54350000D01*
X233230000Y-57980000D02*
X236930000Y-54280000D01*
X232200000Y-57980000D02*
X233230000Y-57980000D01*
X255030000Y-88550000D02*
X252930000Y-90650000D01*
X236930000Y-54280000D02*
X252878629Y-54280000D01*
D21*
X216670000Y-104720000D02*
X216590000Y-104640000D01*
D20*
X253681371Y-54280000D02*
X257300000Y-54280000D01*
D21*
X257750000Y-80520000D02*
X257760000Y-80530000D01*
D20*
X252850000Y-90770000D02*
X248520000Y-90770000D01*
D21*
X236420750Y-74109250D02*
X236420750Y-81670000D01*
X236520000Y-74010000D02*
X236420750Y-74109250D01*
X221350000Y-82410000D02*
X215850000Y-87910000D01*
X217060000Y-105770761D02*
X218770000Y-105770761D01*
X219219239Y-106220000D02*
X222200000Y-106220000D01*
X234250000Y-82410000D02*
X221350000Y-82410000D01*
X216610761Y-106220000D02*
X217060000Y-105770761D01*
X215850000Y-105550000D02*
X216520000Y-106220000D01*
X216520000Y-106220000D02*
X216610761Y-106220000D01*
X215850000Y-87910000D02*
X215850000Y-105550000D01*
X218770000Y-105770761D02*
X219219239Y-106220000D01*
X236630000Y-64820000D02*
X236630000Y-70250000D01*
X236630000Y-70250000D02*
X236560000Y-70320000D01*
X236700000Y-64750000D02*
X236630000Y-64820000D01*
X259830000Y-70370000D02*
X259800000Y-70370000D01*
X259220000Y-70950000D02*
X259220000Y-80580000D01*
X234619620Y-84760380D02*
X234706551Y-84673449D01*
X234729240Y-85010000D02*
X234619620Y-84900380D01*
X259220000Y-80580000D02*
X254790000Y-85010000D01*
X254790000Y-85010000D02*
X234729240Y-85010000D01*
X234619620Y-84900380D02*
X234619620Y-84760380D01*
X259800000Y-70370000D02*
X259220000Y-70950000D01*
X234437312Y-84023449D02*
X234320761Y-84140000D01*
X234320761Y-84140000D02*
X233889458Y-84140000D01*
X253430000Y-84140000D02*
X235092341Y-84140000D01*
X235092341Y-84140000D02*
X234975790Y-84023449D01*
X255410000Y-82160000D02*
X253430000Y-84140000D01*
X234975790Y-84023449D02*
X234437312Y-84023449D01*
X233889458Y-84140000D02*
X233366910Y-83617452D01*
X255410000Y-73290000D02*
X255410000Y-82160000D01*
X221170000Y-81420000D02*
X214730000Y-87860000D01*
X218360000Y-110990000D02*
X220620000Y-110990000D01*
X221530000Y-110080000D02*
X222150000Y-110080000D01*
X220620000Y-110990000D02*
X221530000Y-110080000D01*
X233070000Y-81420000D02*
X224200000Y-81420000D01*
X214730000Y-107360000D02*
X218360000Y-110990000D01*
X214730000Y-87860000D02*
X214730000Y-107360000D01*
X249450000Y-106690000D02*
X249450000Y-110080000D01*
X249450000Y-110080000D02*
X248690000Y-110840000D01*
X245100000Y-108650000D02*
X245100000Y-100740000D01*
X245100000Y-100740000D02*
X245190000Y-100650000D01*
X248690000Y-110840000D02*
X247290000Y-110840000D01*
X247290000Y-110840000D02*
X245100000Y-108650000D01*
X225410000Y-96211372D02*
X225410000Y-99160000D01*
X225740000Y-95881372D02*
X225410000Y-96211372D01*
X225410000Y-99160000D02*
X224560000Y-100010000D01*
X227060000Y-89770000D02*
X225740000Y-91090000D01*
X225740000Y-91090000D02*
X225740000Y-95881372D01*
X250929239Y-102160000D02*
X250639239Y-102450000D01*
X249720000Y-102069239D02*
X249720000Y-101640000D01*
X250639239Y-102450000D02*
X250100761Y-102450000D01*
X249720000Y-101640000D02*
X249200000Y-101120000D01*
X260740000Y-102160000D02*
X250929239Y-102160000D01*
X250100761Y-102450000D02*
X249720000Y-102069239D01*
X221980000Y-89770000D02*
X225340000Y-93130000D01*
X223690000Y-108990000D02*
X225270000Y-110570000D01*
X225340000Y-95715686D02*
X223690000Y-97365686D01*
X223690000Y-97365686D02*
X223690000Y-108990000D01*
X225340000Y-93130000D02*
X225340000Y-95715686D01*
X248580000Y-109499750D02*
X246779750Y-109499750D01*
X245960000Y-96846137D02*
X245960000Y-98080000D01*
X233353863Y-84240000D02*
X245960000Y-96846137D01*
X245960000Y-108680000D02*
X245960000Y-98080000D01*
X246779750Y-109499750D02*
X245960000Y-108680000D01*
X227040000Y-84240000D02*
X233353863Y-84240000D01*
X222140000Y-92750000D02*
X219720000Y-92750000D01*
X229150000Y-92590000D02*
X226770000Y-92590000D01*
X219720000Y-92750000D02*
X216840000Y-95630000D01*
X229200000Y-92640000D02*
X229150000Y-92590000D01*
X216840000Y-95630000D02*
X216840000Y-98150000D01*
X216840000Y-98150000D02*
X216720000Y-98270000D01*
X250370000Y-100975647D02*
X250370000Y-101800000D01*
X249650000Y-99520000D02*
X250367250Y-100237250D01*
X250367250Y-100972897D02*
X250370000Y-100975647D01*
X250367250Y-100237250D02*
X250367250Y-100972897D01*
G04 #@! TA.AperFunction,Conductor*
G36*
X261313742Y-13349900D02*
G01*
X261359700Y-13402528D01*
X261371099Y-13453367D01*
X261499495Y-27858342D01*
X261499500Y-27859447D01*
X261499500Y-45466000D01*
X261479815Y-45533039D01*
X261427011Y-45578794D01*
X261375500Y-45590000D01*
X234081205Y-45590000D01*
X234014166Y-45570315D01*
X233968411Y-45517511D01*
X233957205Y-45466317D01*
X233935110Y-36834108D01*
X245979500Y-36834108D01*
X245979500Y-36965891D01*
X246013608Y-37093187D01*
X246046554Y-37150250D01*
X246079500Y-37207314D01*
X246172686Y-37300500D01*
X246271521Y-37357563D01*
X246286810Y-37366390D01*
X246286814Y-37366392D01*
X246414108Y-37400500D01*
X246414110Y-37400500D01*
X246545890Y-37400500D01*
X246545892Y-37400500D01*
X246673186Y-37366392D01*
X246758540Y-37317113D01*
X246820540Y-37300500D01*
X248116063Y-37300500D01*
X248168750Y-37314618D01*
X248169304Y-37313281D01*
X248176807Y-37316388D01*
X248176814Y-37316392D01*
X248304108Y-37350500D01*
X248304110Y-37350500D01*
X248435890Y-37350500D01*
X248435892Y-37350500D01*
X248563186Y-37316392D01*
X248677314Y-37250500D01*
X248770500Y-37157314D01*
X248836392Y-37043186D01*
X248870500Y-36915892D01*
X248870500Y-36784108D01*
X248836392Y-36656814D01*
X248770500Y-36542686D01*
X248677314Y-36449500D01*
X248590712Y-36399500D01*
X248563187Y-36383608D01*
X248499539Y-36366554D01*
X248435892Y-36349500D01*
X248304108Y-36349500D01*
X248176814Y-36383608D01*
X248169304Y-36386719D01*
X248168750Y-36385381D01*
X248116063Y-36399500D01*
X246414108Y-36399500D01*
X246286812Y-36433608D01*
X246172686Y-36499500D01*
X246172683Y-36499502D01*
X246079502Y-36592683D01*
X246079500Y-36592686D01*
X246013608Y-36706812D01*
X245979500Y-36834108D01*
X233935110Y-36834108D01*
X233924230Y-32583389D01*
X235279500Y-32583389D01*
X235279500Y-32756611D01*
X235306598Y-32927701D01*
X235360127Y-33092445D01*
X235438768Y-33246788D01*
X235540586Y-33386928D01*
X235663072Y-33509414D01*
X235803212Y-33611232D01*
X235957555Y-33689873D01*
X236122299Y-33743402D01*
X236293389Y-33770500D01*
X236293390Y-33770500D01*
X236466610Y-33770500D01*
X236466611Y-33770500D01*
X236637701Y-33743402D01*
X236802445Y-33689873D01*
X236956788Y-33611232D01*
X237096928Y-33509414D01*
X237219414Y-33386928D01*
X237321232Y-33246788D01*
X237399873Y-33092445D01*
X237453402Y-32927701D01*
X237480500Y-32756611D01*
X237480500Y-32583389D01*
X240359500Y-32583389D01*
X240359500Y-32756611D01*
X240386598Y-32927701D01*
X240440127Y-33092445D01*
X240518768Y-33246788D01*
X240620586Y-33386928D01*
X240743072Y-33509414D01*
X240883212Y-33611232D01*
X241037555Y-33689873D01*
X241202299Y-33743402D01*
X241373389Y-33770500D01*
X241373390Y-33770500D01*
X241546610Y-33770500D01*
X241546611Y-33770500D01*
X241717701Y-33743402D01*
X241882445Y-33689873D01*
X242036788Y-33611232D01*
X242176928Y-33509414D01*
X242299414Y-33386928D01*
X242401232Y-33246788D01*
X242479873Y-33092445D01*
X242533402Y-32927701D01*
X242560500Y-32756611D01*
X242560500Y-32583389D01*
X242533402Y-32412299D01*
X242479873Y-32247555D01*
X242401232Y-32093212D01*
X242299414Y-31953072D01*
X242176928Y-31830586D01*
X242036788Y-31728768D01*
X241882445Y-31650127D01*
X241717701Y-31596598D01*
X241717699Y-31596597D01*
X241717698Y-31596597D01*
X241586271Y-31575781D01*
X241546611Y-31569500D01*
X241373389Y-31569500D01*
X241333728Y-31575781D01*
X241202302Y-31596597D01*
X241037552Y-31650128D01*
X240883211Y-31728768D01*
X240803256Y-31786859D01*
X240743072Y-31830586D01*
X240743070Y-31830588D01*
X240743069Y-31830588D01*
X240620588Y-31953069D01*
X240620588Y-31953070D01*
X240620586Y-31953072D01*
X240576859Y-32013256D01*
X240518768Y-32093211D01*
X240440128Y-32247552D01*
X240386597Y-32412302D01*
X240359500Y-32583389D01*
X237480500Y-32583389D01*
X237453402Y-32412299D01*
X237399873Y-32247555D01*
X237321232Y-32093212D01*
X237219414Y-31953072D01*
X237096928Y-31830586D01*
X236956788Y-31728768D01*
X236802445Y-31650127D01*
X236637701Y-31596598D01*
X236637699Y-31596597D01*
X236637698Y-31596597D01*
X236506271Y-31575781D01*
X236466611Y-31569500D01*
X236293389Y-31569500D01*
X236253728Y-31575781D01*
X236122302Y-31596597D01*
X235957552Y-31650128D01*
X235803211Y-31728768D01*
X235723256Y-31786859D01*
X235663072Y-31830586D01*
X235663070Y-31830588D01*
X235663069Y-31830588D01*
X235540588Y-31953069D01*
X235540588Y-31953070D01*
X235540586Y-31953072D01*
X235496859Y-32013256D01*
X235438768Y-32093211D01*
X235360128Y-32247552D01*
X235306597Y-32412302D01*
X235279500Y-32583389D01*
X233924230Y-32583389D01*
X233917728Y-30043389D01*
X237819500Y-30043389D01*
X237819500Y-30216611D01*
X237846598Y-30387701D01*
X237900127Y-30552445D01*
X237978768Y-30706788D01*
X238080586Y-30846928D01*
X238203072Y-30969414D01*
X238343212Y-31071232D01*
X238497555Y-31149873D01*
X238662299Y-31203402D01*
X238833389Y-31230500D01*
X238833390Y-31230500D01*
X239006610Y-31230500D01*
X239006611Y-31230500D01*
X239177701Y-31203402D01*
X239342445Y-31149873D01*
X239496788Y-31071232D01*
X239636928Y-30969414D01*
X239759414Y-30846928D01*
X239861232Y-30706788D01*
X239939873Y-30552445D01*
X239993402Y-30387701D01*
X240020500Y-30216611D01*
X240020500Y-30043389D01*
X239993402Y-29872299D01*
X239939873Y-29707555D01*
X239861232Y-29553212D01*
X239759414Y-29413072D01*
X239636928Y-29290586D01*
X239496788Y-29188768D01*
X239342445Y-29110127D01*
X239177701Y-29056598D01*
X239177699Y-29056597D01*
X239177698Y-29056597D01*
X239046271Y-29035781D01*
X239006611Y-29029500D01*
X238833389Y-29029500D01*
X238793728Y-29035781D01*
X238662302Y-29056597D01*
X238497552Y-29110128D01*
X238343211Y-29188768D01*
X238263256Y-29246859D01*
X238203072Y-29290586D01*
X238203070Y-29290588D01*
X238203069Y-29290588D01*
X238080588Y-29413069D01*
X238080588Y-29413070D01*
X238080586Y-29413072D01*
X238036859Y-29473256D01*
X237978768Y-29553211D01*
X237900128Y-29707552D01*
X237846597Y-29872302D01*
X237819500Y-30043389D01*
X233917728Y-30043389D01*
X233906726Y-25745033D01*
X237646899Y-25745033D01*
X237646899Y-25745034D01*
X238596218Y-25745034D01*
X238580158Y-25761094D01*
X238529998Y-25847973D01*
X238504034Y-25944874D01*
X238504034Y-26045194D01*
X238529998Y-26142095D01*
X238580158Y-26228974D01*
X238596218Y-26245034D01*
X237646899Y-26245034D01*
X237654108Y-26290551D01*
X237715490Y-26479469D01*
X237805675Y-26656466D01*
X237922437Y-26817173D01*
X237922437Y-26817174D01*
X238062893Y-26957630D01*
X238223601Y-27074392D01*
X238400596Y-27164576D01*
X238589507Y-27225956D01*
X238635034Y-27233167D01*
X238635034Y-26283850D01*
X238651094Y-26299910D01*
X238737973Y-26350070D01*
X238834874Y-26376034D01*
X238935194Y-26376034D01*
X239032095Y-26350070D01*
X239118974Y-26299910D01*
X239135034Y-26283850D01*
X239135034Y-27233166D01*
X239180560Y-27225956D01*
X239369471Y-27164576D01*
X239546466Y-27074392D01*
X239707173Y-26957630D01*
X239707174Y-26957630D01*
X239847630Y-26817174D01*
X239847630Y-26817173D01*
X239964392Y-26656466D01*
X240054577Y-26479469D01*
X240115959Y-26290551D01*
X240123168Y-26245034D01*
X239173850Y-26245034D01*
X239189910Y-26228974D01*
X239240070Y-26142095D01*
X239266034Y-26045194D01*
X239266034Y-25944874D01*
X239240070Y-25847973D01*
X239189910Y-25761094D01*
X239173850Y-25745034D01*
X240123169Y-25745034D01*
X240123168Y-25745033D01*
X240115959Y-25699516D01*
X240054577Y-25510598D01*
X239964392Y-25333601D01*
X239847630Y-25172894D01*
X239847630Y-25172893D01*
X239707174Y-25032437D01*
X239546466Y-24915675D01*
X239369468Y-24825490D01*
X239369470Y-24825490D01*
X239180551Y-24764108D01*
X239135034Y-24756899D01*
X239135034Y-25706218D01*
X239118974Y-25690158D01*
X239032095Y-25639998D01*
X238935194Y-25614034D01*
X238834874Y-25614034D01*
X238737973Y-25639998D01*
X238651094Y-25690158D01*
X238635034Y-25706218D01*
X238635034Y-24756899D01*
X238635033Y-24756899D01*
X238589516Y-24764108D01*
X238400598Y-24825490D01*
X238223601Y-24915675D01*
X238062894Y-25032437D01*
X238062893Y-25032437D01*
X237922437Y-25172893D01*
X237922437Y-25172894D01*
X237805675Y-25333601D01*
X237715490Y-25510598D01*
X237654108Y-25699516D01*
X237646899Y-25745033D01*
X233906726Y-25745033D01*
X233900622Y-23360231D01*
X235382534Y-23360231D01*
X235382534Y-23549836D01*
X235419520Y-23735777D01*
X235419522Y-23735785D01*
X235492076Y-23910946D01*
X235597411Y-24068592D01*
X235731475Y-24202656D01*
X235836334Y-24272720D01*
X235889119Y-24307990D01*
X236064283Y-24380546D01*
X236250231Y-24417533D01*
X236250235Y-24417534D01*
X236250236Y-24417534D01*
X236439833Y-24417534D01*
X236439834Y-24417533D01*
X236625785Y-24380546D01*
X236800949Y-24307990D01*
X236958592Y-24202656D01*
X237092656Y-24068592D01*
X237197990Y-23910949D01*
X237270546Y-23735785D01*
X237307534Y-23549832D01*
X237307534Y-23360236D01*
X237270546Y-23174283D01*
X237197990Y-22999119D01*
X237162720Y-22946334D01*
X237092656Y-22841475D01*
X236958592Y-22707411D01*
X236800946Y-22602076D01*
X236625785Y-22529522D01*
X236625777Y-22529520D01*
X236439836Y-22492534D01*
X236439832Y-22492534D01*
X236250236Y-22492534D01*
X236250231Y-22492534D01*
X236064290Y-22529520D01*
X236064282Y-22529522D01*
X235889121Y-22602076D01*
X235731475Y-22707411D01*
X235597411Y-22841475D01*
X235492076Y-22999121D01*
X235419522Y-23174282D01*
X235419520Y-23174290D01*
X235382534Y-23360231D01*
X233900622Y-23360231D01*
X233894121Y-20820231D01*
X237922534Y-20820231D01*
X237922534Y-21009836D01*
X237959520Y-21195777D01*
X237959522Y-21195785D01*
X238032076Y-21370946D01*
X238137411Y-21528592D01*
X238271475Y-21662656D01*
X238376334Y-21732720D01*
X238429119Y-21767990D01*
X238604283Y-21840546D01*
X238790231Y-21877533D01*
X238790235Y-21877534D01*
X238790236Y-21877534D01*
X238979833Y-21877534D01*
X238979834Y-21877533D01*
X239165785Y-21840546D01*
X239340949Y-21767990D01*
X239498592Y-21662656D01*
X239632656Y-21528592D01*
X239737990Y-21370949D01*
X239810546Y-21195785D01*
X239847534Y-21009832D01*
X239847534Y-20820236D01*
X239810546Y-20634283D01*
X239737990Y-20459119D01*
X239702720Y-20406334D01*
X239632656Y-20301475D01*
X239498592Y-20167411D01*
X239340946Y-20062076D01*
X239165785Y-19989522D01*
X239165777Y-19989520D01*
X238979836Y-19952534D01*
X238979832Y-19952534D01*
X238790236Y-19952534D01*
X238790231Y-19952534D01*
X238604290Y-19989520D01*
X238604282Y-19989522D01*
X238429121Y-20062076D01*
X238271475Y-20167411D01*
X238137411Y-20301475D01*
X238032076Y-20459121D01*
X237959522Y-20634282D01*
X237959520Y-20634290D01*
X237922534Y-20820231D01*
X233894121Y-20820231D01*
X233890347Y-19345768D01*
X233909860Y-19278681D01*
X233962547Y-19232791D01*
X234025244Y-19221933D01*
X234421429Y-19256890D01*
X234569998Y-19270000D01*
X234569998Y-19269999D01*
X234570000Y-19270000D01*
X240431014Y-15255513D01*
X253559500Y-15255513D01*
X253559500Y-15444486D01*
X253589059Y-15631118D01*
X253647454Y-15810836D01*
X253733240Y-15979199D01*
X253844310Y-16132073D01*
X253977927Y-16265690D01*
X254130801Y-16376760D01*
X254210347Y-16417290D01*
X254299163Y-16462545D01*
X254299165Y-16462545D01*
X254299168Y-16462547D01*
X254388734Y-16491649D01*
X254420803Y-16502069D01*
X254478478Y-16541507D01*
X254505676Y-16605866D01*
X254493761Y-16674712D01*
X254446516Y-16726188D01*
X254420803Y-16737931D01*
X254299163Y-16777454D01*
X254130800Y-16863240D01*
X254043579Y-16926610D01*
X253977927Y-16974310D01*
X253977925Y-16974312D01*
X253977924Y-16974312D01*
X253844312Y-17107924D01*
X253844312Y-17107925D01*
X253844310Y-17107927D01*
X253796610Y-17173579D01*
X253733240Y-17260800D01*
X253647454Y-17429163D01*
X253589059Y-17608881D01*
X253559500Y-17795513D01*
X253559500Y-17984486D01*
X253589059Y-18171118D01*
X253647454Y-18350836D01*
X253733240Y-18519199D01*
X253844310Y-18672073D01*
X253977927Y-18805690D01*
X254130801Y-18916760D01*
X254210347Y-18957290D01*
X254299163Y-19002545D01*
X254299165Y-19002545D01*
X254299168Y-19002547D01*
X254395497Y-19033846D01*
X254478881Y-19060940D01*
X254665514Y-19090500D01*
X254665519Y-19090500D01*
X254854486Y-19090500D01*
X255041118Y-19060940D01*
X255220832Y-19002547D01*
X255389199Y-18916760D01*
X255542073Y-18805690D01*
X255675690Y-18672073D01*
X255786760Y-18519199D01*
X255872547Y-18350832D01*
X255930940Y-18171118D01*
X255960500Y-17984486D01*
X255960500Y-17795513D01*
X255930940Y-17608881D01*
X255872545Y-17429163D01*
X255786759Y-17260800D01*
X255675690Y-17107927D01*
X255542073Y-16974310D01*
X255389199Y-16863240D01*
X255220836Y-16777454D01*
X255146472Y-16753291D01*
X255099195Y-16737930D01*
X255041521Y-16698493D01*
X255014323Y-16634134D01*
X255026238Y-16565288D01*
X255073482Y-16513812D01*
X255099194Y-16502069D01*
X255220832Y-16462547D01*
X255389199Y-16376760D01*
X255542073Y-16265690D01*
X255675690Y-16132073D01*
X255786760Y-15979199D01*
X255872547Y-15810832D01*
X255930940Y-15631118D01*
X255960500Y-15444486D01*
X255960500Y-15255513D01*
X255930940Y-15068881D01*
X255872545Y-14889163D01*
X255786759Y-14720800D01*
X255675690Y-14567927D01*
X255542073Y-14434310D01*
X255389199Y-14323240D01*
X255220836Y-14237454D01*
X255041118Y-14179059D01*
X254854486Y-14149500D01*
X254854481Y-14149500D01*
X254665519Y-14149500D01*
X254665514Y-14149500D01*
X254478881Y-14179059D01*
X254299163Y-14237454D01*
X254130800Y-14323240D01*
X254043579Y-14386610D01*
X253977927Y-14434310D01*
X253977925Y-14434312D01*
X253977924Y-14434312D01*
X253844312Y-14567924D01*
X253844312Y-14567925D01*
X253844310Y-14567927D01*
X253796610Y-14633579D01*
X253733240Y-14720800D01*
X253647454Y-14889163D01*
X253589059Y-15068881D01*
X253559500Y-15255513D01*
X240431014Y-15255513D01*
X243108540Y-13421548D01*
X243174971Y-13399905D01*
X243178088Y-13399853D01*
X261246630Y-13330473D01*
X261313742Y-13349900D01*
G37*
G04 #@! TD.AperFunction*
G04 #@! TA.AperFunction,Conductor*
G36*
X178117818Y-86437949D02*
G01*
X178192257Y-86458139D01*
X178246627Y-86512844D01*
X178266331Y-86583954D01*
X178736721Y-109988006D01*
X178718260Y-110062892D01*
X178664829Y-110118515D01*
X178590745Y-110139970D01*
X178587751Y-110140000D01*
X155569000Y-110140000D01*
X155494500Y-110120038D01*
X155439962Y-110065500D01*
X155420000Y-109991000D01*
X155420000Y-86517738D01*
X155439962Y-86443238D01*
X155494500Y-86388700D01*
X155568996Y-86368738D01*
X178117818Y-86437949D01*
G37*
G04 #@! TD.AperFunction*
G04 #@! TA.AperFunction,Conductor*
G36*
X178142246Y-86438024D02*
G01*
X178209224Y-86457914D01*
X178254817Y-86510858D01*
X178265840Y-86559531D01*
X178568271Y-101606814D01*
X178736967Y-110000250D01*
X178737234Y-110013508D01*
X178718901Y-110080930D01*
X178667027Y-110127736D01*
X178613259Y-110140000D01*
X155544000Y-110140000D01*
X155476961Y-110120315D01*
X155431206Y-110067511D01*
X155420000Y-110016000D01*
X155420000Y-86492661D01*
X155439685Y-86425622D01*
X155492489Y-86379867D01*
X155544377Y-86368662D01*
X178142246Y-86438024D01*
G37*
G04 #@! TD.AperFunction*
G04 #@! TA.AperFunction,Conductor*
G36*
X261376028Y-46367154D02*
G01*
X261442979Y-46387120D01*
X261488511Y-46440117D01*
X261499500Y-46491152D01*
X261499500Y-123375500D01*
X261479815Y-123442539D01*
X261427011Y-123488294D01*
X261375500Y-123499500D01*
X245613768Y-123499500D01*
X245546729Y-123479815D01*
X245500974Y-123427011D01*
X245489768Y-123375700D01*
X245483458Y-119470102D01*
X245470000Y-111140000D01*
X245469999Y-111140000D01*
X225679013Y-111168340D01*
X225611945Y-111148751D01*
X225566115Y-111096013D01*
X225556072Y-111026869D01*
X225585006Y-110963272D01*
X225591127Y-110956686D01*
X225670500Y-110877314D01*
X225736392Y-110763186D01*
X225770500Y-110635892D01*
X225770500Y-110504108D01*
X225736392Y-110376814D01*
X225670500Y-110262686D01*
X225577314Y-110169500D01*
X225520250Y-110136554D01*
X225463187Y-110103608D01*
X225399539Y-110086554D01*
X225335892Y-110069500D01*
X225245833Y-110069500D01*
X225178794Y-110049815D01*
X225158152Y-110033181D01*
X224026819Y-108901848D01*
X223993334Y-108840525D01*
X223990500Y-108814167D01*
X223990500Y-100447676D01*
X224010185Y-100380637D01*
X224062989Y-100334882D01*
X224132147Y-100324938D01*
X224195703Y-100353963D01*
X224202181Y-100359995D01*
X224252686Y-100410500D01*
X224366814Y-100476392D01*
X224494108Y-100510500D01*
X224494110Y-100510500D01*
X224625890Y-100510500D01*
X224625892Y-100510500D01*
X224753186Y-100476392D01*
X224867314Y-100410500D01*
X224960500Y-100317314D01*
X225026392Y-100203186D01*
X225060500Y-100075892D01*
X225060500Y-99985832D01*
X225080185Y-99918793D01*
X225096819Y-99898151D01*
X225348336Y-99646634D01*
X225650460Y-99344511D01*
X225690022Y-99275988D01*
X225710500Y-99199562D01*
X225710500Y-99120438D01*
X225710500Y-96387205D01*
X225730185Y-96320166D01*
X225746819Y-96299524D01*
X225808194Y-96238149D01*
X225980460Y-96065883D01*
X226009152Y-96016186D01*
X226020021Y-95997361D01*
X226040500Y-95920934D01*
X226040500Y-92743125D01*
X226060185Y-92676086D01*
X226112989Y-92630331D01*
X226182147Y-92620387D01*
X226245703Y-92649412D01*
X226283477Y-92708190D01*
X226284275Y-92711032D01*
X226303608Y-92783187D01*
X226322490Y-92815891D01*
X226369500Y-92897314D01*
X226462686Y-92990500D01*
X226576814Y-93056392D01*
X226704108Y-93090500D01*
X226704110Y-93090500D01*
X226835890Y-93090500D01*
X226835892Y-93090500D01*
X226963186Y-93056392D01*
X227077314Y-92990500D01*
X227140995Y-92926819D01*
X227202318Y-92893334D01*
X227228676Y-92890500D01*
X228695107Y-92890500D01*
X228762146Y-92910185D01*
X228792732Y-92942260D01*
X228794552Y-92940865D01*
X228799498Y-92947311D01*
X228799500Y-92947314D01*
X228892686Y-93040500D01*
X229006814Y-93106392D01*
X229134108Y-93140500D01*
X229134110Y-93140500D01*
X229265890Y-93140500D01*
X229265892Y-93140500D01*
X229393186Y-93106392D01*
X229507314Y-93040500D01*
X229600500Y-92947314D01*
X229666392Y-92833186D01*
X229700500Y-92705892D01*
X229700500Y-92574108D01*
X229666392Y-92446814D01*
X229600500Y-92332686D01*
X229507314Y-92239500D01*
X229450250Y-92206554D01*
X229393187Y-92173608D01*
X229329539Y-92156554D01*
X229265892Y-92139500D01*
X229134108Y-92139500D01*
X229006812Y-92173608D01*
X228892686Y-92239500D01*
X228892683Y-92239502D01*
X228879005Y-92253181D01*
X228817682Y-92286666D01*
X228791324Y-92289500D01*
X227228676Y-92289500D01*
X227161637Y-92269815D01*
X227140995Y-92253181D01*
X227077316Y-92189502D01*
X227077314Y-92189500D01*
X226990712Y-92139500D01*
X226963187Y-92123608D01*
X226886234Y-92102989D01*
X226835892Y-92089500D01*
X226704108Y-92089500D01*
X226576812Y-92123608D01*
X226462686Y-92189500D01*
X226462683Y-92189502D01*
X226369502Y-92282683D01*
X226369500Y-92282686D01*
X226303608Y-92396814D01*
X226290211Y-92446814D01*
X226284275Y-92468968D01*
X226247910Y-92528628D01*
X226185063Y-92559157D01*
X226115687Y-92550862D01*
X226061809Y-92506377D01*
X226040535Y-92439825D01*
X226040500Y-92436874D01*
X226040500Y-91265832D01*
X226060185Y-91198793D01*
X226076815Y-91178155D01*
X226497896Y-90757073D01*
X226559217Y-90723590D01*
X226628908Y-90728574D01*
X226633007Y-90730186D01*
X226753580Y-90780130D01*
X226898052Y-90808867D01*
X226956530Y-90820499D01*
X226956534Y-90820500D01*
X226956535Y-90820500D01*
X227163466Y-90820500D01*
X227163467Y-90820499D01*
X227366420Y-90780130D01*
X227557598Y-90700941D01*
X227729655Y-90585977D01*
X227875977Y-90439655D01*
X227990941Y-90267598D01*
X228059165Y-90102889D01*
X228103004Y-90048488D01*
X228169298Y-90026423D01*
X228236998Y-90043702D01*
X228284609Y-90094839D01*
X228291656Y-90112026D01*
X228348904Y-90288216D01*
X228445379Y-90477557D01*
X228570272Y-90649459D01*
X228570276Y-90649464D01*
X228720535Y-90799723D01*
X228720540Y-90799727D01*
X228892442Y-90924620D01*
X229081782Y-91021095D01*
X229283871Y-91086757D01*
X229350000Y-91097231D01*
X229350000Y-90260747D01*
X229387708Y-90282518D01*
X229527591Y-90320000D01*
X229672409Y-90320000D01*
X229812292Y-90282518D01*
X229850000Y-90260747D01*
X229850000Y-91097230D01*
X229916126Y-91086757D01*
X229916129Y-91086757D01*
X230118217Y-91021095D01*
X230307557Y-90924620D01*
X230479459Y-90799727D01*
X230479464Y-90799723D01*
X230629723Y-90649464D01*
X230629727Y-90649459D01*
X230754620Y-90477557D01*
X230851095Y-90288217D01*
X230908343Y-90112026D01*
X230947780Y-90054351D01*
X231012139Y-90027152D01*
X231080985Y-90039066D01*
X231132461Y-90086310D01*
X231140835Y-90102891D01*
X231200753Y-90247547D01*
X231209059Y-90267598D01*
X231243451Y-90319070D01*
X231324024Y-90439657D01*
X231470342Y-90585975D01*
X231470345Y-90585977D01*
X231642402Y-90700941D01*
X231833580Y-90780130D01*
X231978052Y-90808867D01*
X232036530Y-90820499D01*
X232036534Y-90820500D01*
X232036535Y-90820500D01*
X232243466Y-90820500D01*
X232243467Y-90820499D01*
X232446420Y-90780130D01*
X232637598Y-90700941D01*
X232809655Y-90585977D01*
X232955977Y-90439655D01*
X233070941Y-90267598D01*
X233150130Y-90076420D01*
X233190500Y-89873465D01*
X233190500Y-89666535D01*
X233150130Y-89463580D01*
X233070941Y-89272402D01*
X232955977Y-89100345D01*
X232955975Y-89100342D01*
X232809657Y-88954024D01*
X232714638Y-88890535D01*
X232637598Y-88839059D01*
X232446420Y-88759870D01*
X232446412Y-88759868D01*
X232243469Y-88719500D01*
X232243465Y-88719500D01*
X232036535Y-88719500D01*
X232036530Y-88719500D01*
X231833587Y-88759868D01*
X231833579Y-88759870D01*
X231642403Y-88839058D01*
X231470342Y-88954024D01*
X231324024Y-89100342D01*
X231209057Y-89272403D01*
X231140835Y-89437108D01*
X231096994Y-89491511D01*
X231030700Y-89513576D01*
X230963000Y-89496297D01*
X230915390Y-89445159D01*
X230908343Y-89427973D01*
X230851095Y-89251782D01*
X230754620Y-89062442D01*
X230629727Y-88890540D01*
X230629723Y-88890535D01*
X230479464Y-88740276D01*
X230479459Y-88740272D01*
X230307557Y-88615379D01*
X230118216Y-88518904D01*
X229942026Y-88461656D01*
X229884350Y-88422218D01*
X229857152Y-88357860D01*
X229869067Y-88289013D01*
X229916311Y-88237538D01*
X229932882Y-88229168D01*
X230097598Y-88160941D01*
X230269655Y-88045977D01*
X230415977Y-87899655D01*
X230530941Y-87727598D01*
X230610130Y-87536420D01*
X230650500Y-87333465D01*
X230650500Y-87126535D01*
X230650499Y-87126530D01*
X231089500Y-87126530D01*
X231089500Y-87333469D01*
X231129868Y-87536412D01*
X231129870Y-87536420D01*
X231187474Y-87675489D01*
X231209059Y-87727598D01*
X231266541Y-87813626D01*
X231324024Y-87899657D01*
X231470342Y-88045975D01*
X231470345Y-88045977D01*
X231642402Y-88160941D01*
X231833580Y-88240130D01*
X231998855Y-88273005D01*
X232036530Y-88280499D01*
X232036534Y-88280500D01*
X232036535Y-88280500D01*
X232243466Y-88280500D01*
X232243467Y-88280499D01*
X232446420Y-88240130D01*
X232637598Y-88160941D01*
X232809655Y-88045977D01*
X232955977Y-87899655D01*
X233070941Y-87727598D01*
X233150130Y-87536420D01*
X233190500Y-87333465D01*
X233190500Y-87126535D01*
X233150130Y-86923580D01*
X233070941Y-86732402D01*
X232955977Y-86560345D01*
X232955975Y-86560342D01*
X232809657Y-86414024D01*
X232723626Y-86356541D01*
X232637598Y-86299059D01*
X232446420Y-86219870D01*
X232446412Y-86219868D01*
X232243469Y-86179500D01*
X232243465Y-86179500D01*
X232036535Y-86179500D01*
X232036530Y-86179500D01*
X231833587Y-86219868D01*
X231833579Y-86219870D01*
X231642403Y-86299058D01*
X231470342Y-86414024D01*
X231324024Y-86560342D01*
X231209058Y-86732403D01*
X231129870Y-86923579D01*
X231129868Y-86923587D01*
X231089500Y-87126530D01*
X230650499Y-87126530D01*
X230610130Y-86923580D01*
X230530941Y-86732402D01*
X230415977Y-86560345D01*
X230415975Y-86560342D01*
X230269657Y-86414024D01*
X230183626Y-86356541D01*
X230097598Y-86299059D01*
X229906420Y-86219870D01*
X229906412Y-86219868D01*
X229703469Y-86179500D01*
X229703465Y-86179500D01*
X229496535Y-86179500D01*
X229496530Y-86179500D01*
X229293587Y-86219868D01*
X229293579Y-86219870D01*
X229102403Y-86299058D01*
X228930342Y-86414024D01*
X228784024Y-86560342D01*
X228669058Y-86732403D01*
X228589870Y-86923579D01*
X228589868Y-86923587D01*
X228549500Y-87126530D01*
X228549500Y-87333469D01*
X228589868Y-87536412D01*
X228589870Y-87536420D01*
X228647474Y-87675489D01*
X228669059Y-87727598D01*
X228726541Y-87813626D01*
X228784024Y-87899657D01*
X228930342Y-88045975D01*
X229102405Y-88160943D01*
X229205043Y-88203456D01*
X229267108Y-88229164D01*
X229321511Y-88273005D01*
X229343576Y-88339299D01*
X229326297Y-88406998D01*
X229275160Y-88454609D01*
X229257974Y-88461656D01*
X229081781Y-88518905D01*
X228892442Y-88615379D01*
X228720540Y-88740272D01*
X228720535Y-88740276D01*
X228570276Y-88890535D01*
X228570272Y-88890540D01*
X228445379Y-89062442D01*
X228348905Y-89251781D01*
X228291656Y-89427974D01*
X228252218Y-89485649D01*
X228187859Y-89512847D01*
X228119013Y-89500932D01*
X228067537Y-89453688D01*
X228059164Y-89437107D01*
X227990943Y-89272405D01*
X227875975Y-89100342D01*
X227729657Y-88954024D01*
X227634638Y-88890535D01*
X227557598Y-88839059D01*
X227366420Y-88759870D01*
X227366412Y-88759868D01*
X227163469Y-88719500D01*
X227163465Y-88719500D01*
X226956535Y-88719500D01*
X226956530Y-88719500D01*
X226753587Y-88759868D01*
X226753579Y-88759870D01*
X226562403Y-88839058D01*
X226390342Y-88954024D01*
X226244024Y-89100342D01*
X226129058Y-89272403D01*
X226049870Y-89463579D01*
X226049868Y-89463587D01*
X226009500Y-89666530D01*
X226009500Y-89873469D01*
X226049868Y-90076412D01*
X226049871Y-90076424D01*
X226099803Y-90196971D01*
X226107272Y-90266440D01*
X226075997Y-90328919D01*
X226072923Y-90332104D01*
X225555489Y-90849540D01*
X225499541Y-90905487D01*
X225499535Y-90905495D01*
X225459982Y-90974004D01*
X225459979Y-90974009D01*
X225439500Y-91050439D01*
X225439500Y-92505167D01*
X225419815Y-92572206D01*
X225367011Y-92617961D01*
X225297853Y-92627905D01*
X225234297Y-92598880D01*
X225227819Y-92592848D01*
X222967075Y-90332104D01*
X222933590Y-90270781D01*
X222938574Y-90201089D01*
X222940163Y-90197049D01*
X222990130Y-90076420D01*
X223030500Y-89873465D01*
X223030500Y-89666535D01*
X223030499Y-89666530D01*
X223469500Y-89666530D01*
X223469500Y-89873469D01*
X223509868Y-90076412D01*
X223509870Y-90076420D01*
X223580753Y-90247547D01*
X223589059Y-90267598D01*
X223623451Y-90319070D01*
X223704024Y-90439657D01*
X223850342Y-90585975D01*
X223850345Y-90585977D01*
X224022402Y-90700941D01*
X224213580Y-90780130D01*
X224358052Y-90808867D01*
X224416530Y-90820499D01*
X224416534Y-90820500D01*
X224416535Y-90820500D01*
X224623466Y-90820500D01*
X224623467Y-90820499D01*
X224826420Y-90780130D01*
X225017598Y-90700941D01*
X225189655Y-90585977D01*
X225335977Y-90439655D01*
X225450941Y-90267598D01*
X225530130Y-90076420D01*
X225570500Y-89873465D01*
X225570500Y-89666535D01*
X225530130Y-89463580D01*
X225450941Y-89272402D01*
X225335977Y-89100345D01*
X225335975Y-89100342D01*
X225189657Y-88954024D01*
X225094638Y-88890535D01*
X225017598Y-88839059D01*
X224826420Y-88759870D01*
X224826412Y-88759868D01*
X224623469Y-88719500D01*
X224623465Y-88719500D01*
X224416535Y-88719500D01*
X224416530Y-88719500D01*
X224213587Y-88759868D01*
X224213579Y-88759870D01*
X224022403Y-88839058D01*
X223850342Y-88954024D01*
X223704024Y-89100342D01*
X223589058Y-89272403D01*
X223509870Y-89463579D01*
X223509868Y-89463587D01*
X223469500Y-89666530D01*
X223030499Y-89666530D01*
X222990130Y-89463580D01*
X222910941Y-89272402D01*
X222795977Y-89100345D01*
X222795975Y-89100342D01*
X222649657Y-88954024D01*
X222554638Y-88890535D01*
X222477598Y-88839059D01*
X222286420Y-88759870D01*
X222286412Y-88759868D01*
X222083469Y-88719500D01*
X222083465Y-88719500D01*
X221876535Y-88719500D01*
X221876530Y-88719500D01*
X221673587Y-88759868D01*
X221673579Y-88759870D01*
X221482403Y-88839058D01*
X221310342Y-88954024D01*
X221310341Y-88954025D01*
X221222181Y-89042186D01*
X221160858Y-89075671D01*
X221091166Y-89070687D01*
X221035233Y-89028815D01*
X221010816Y-88963351D01*
X221010500Y-88954505D01*
X221010500Y-88675832D01*
X221030185Y-88608793D01*
X221046815Y-88588155D01*
X221417896Y-88217073D01*
X221479217Y-88183590D01*
X221548908Y-88188574D01*
X221553007Y-88190186D01*
X221673580Y-88240130D01*
X221838855Y-88273005D01*
X221876530Y-88280499D01*
X221876534Y-88280500D01*
X221876535Y-88280500D01*
X222083466Y-88280500D01*
X222083467Y-88280499D01*
X222286420Y-88240130D01*
X222477598Y-88160941D01*
X222649655Y-88045977D01*
X222795977Y-87899655D01*
X222910941Y-87727598D01*
X222990130Y-87536420D01*
X223030500Y-87333465D01*
X223030500Y-87126535D01*
X223030499Y-87126530D01*
X223469500Y-87126530D01*
X223469500Y-87333469D01*
X223509868Y-87536412D01*
X223509870Y-87536420D01*
X223567474Y-87675489D01*
X223589059Y-87727598D01*
X223646541Y-87813626D01*
X223704024Y-87899657D01*
X223850342Y-88045975D01*
X223850345Y-88045977D01*
X224022402Y-88160941D01*
X224213580Y-88240130D01*
X224378855Y-88273005D01*
X224416530Y-88280499D01*
X224416534Y-88280500D01*
X224416535Y-88280500D01*
X224623466Y-88280500D01*
X224623467Y-88280499D01*
X224826420Y-88240130D01*
X225017598Y-88160941D01*
X225189655Y-88045977D01*
X225335977Y-87899655D01*
X225450941Y-87727598D01*
X225530130Y-87536420D01*
X225570500Y-87333465D01*
X225570500Y-87126535D01*
X225570499Y-87126530D01*
X226009500Y-87126530D01*
X226009500Y-87333469D01*
X226049868Y-87536412D01*
X226049870Y-87536420D01*
X226107474Y-87675489D01*
X226129059Y-87727598D01*
X226186541Y-87813626D01*
X226244024Y-87899657D01*
X226390342Y-88045975D01*
X226390345Y-88045977D01*
X226562402Y-88160941D01*
X226753580Y-88240130D01*
X226918855Y-88273005D01*
X226956530Y-88280499D01*
X226956534Y-88280500D01*
X226956535Y-88280500D01*
X227163466Y-88280500D01*
X227163467Y-88280499D01*
X227366420Y-88240130D01*
X227557598Y-88160941D01*
X227729655Y-88045977D01*
X227875977Y-87899655D01*
X227990941Y-87727598D01*
X228070130Y-87536420D01*
X228110500Y-87333465D01*
X228110500Y-87126535D01*
X228070130Y-86923580D01*
X227990941Y-86732402D01*
X227875977Y-86560345D01*
X227875975Y-86560342D01*
X227729657Y-86414024D01*
X227643626Y-86356541D01*
X227557598Y-86299059D01*
X227366420Y-86219870D01*
X227366412Y-86219868D01*
X227163469Y-86179500D01*
X227163465Y-86179500D01*
X226956535Y-86179500D01*
X226956530Y-86179500D01*
X226753587Y-86219868D01*
X226753579Y-86219870D01*
X226562403Y-86299058D01*
X226390342Y-86414024D01*
X226244024Y-86560342D01*
X226129058Y-86732403D01*
X226049870Y-86923579D01*
X226049868Y-86923587D01*
X226009500Y-87126530D01*
X225570499Y-87126530D01*
X225530130Y-86923580D01*
X225450941Y-86732402D01*
X225335977Y-86560345D01*
X225335975Y-86560342D01*
X225189657Y-86414024D01*
X225103626Y-86356541D01*
X225017598Y-86299059D01*
X224826420Y-86219870D01*
X224826412Y-86219868D01*
X224623469Y-86179500D01*
X224623465Y-86179500D01*
X224416535Y-86179500D01*
X224416530Y-86179500D01*
X224213587Y-86219868D01*
X224213579Y-86219870D01*
X224022403Y-86299058D01*
X223850342Y-86414024D01*
X223704024Y-86560342D01*
X223589058Y-86732403D01*
X223509870Y-86923579D01*
X223509868Y-86923587D01*
X223469500Y-87126530D01*
X223030499Y-87126530D01*
X222990130Y-86923580D01*
X222910941Y-86732402D01*
X222795977Y-86560345D01*
X222795975Y-86560342D01*
X222649657Y-86414024D01*
X222563626Y-86356541D01*
X222477598Y-86299059D01*
X222286420Y-86219870D01*
X222286412Y-86219868D01*
X222083469Y-86179500D01*
X222083465Y-86179500D01*
X221876535Y-86179500D01*
X221876530Y-86179500D01*
X221673587Y-86219868D01*
X221673579Y-86219870D01*
X221482403Y-86299058D01*
X221310342Y-86414024D01*
X221164024Y-86560342D01*
X221049058Y-86732403D01*
X220969870Y-86923579D01*
X220969868Y-86923587D01*
X220929500Y-87126530D01*
X220929500Y-87333469D01*
X220969868Y-87536412D01*
X220969871Y-87536424D01*
X221019803Y-87656971D01*
X221027272Y-87726440D01*
X220995997Y-87788919D01*
X220992923Y-87792104D01*
X220525489Y-88259540D01*
X220469541Y-88315487D01*
X220469535Y-88315495D01*
X220429982Y-88384004D01*
X220429979Y-88384009D01*
X220409500Y-88460439D01*
X220409500Y-88595500D01*
X220389815Y-88662539D01*
X220337011Y-88708294D01*
X220285500Y-88719500D01*
X218570247Y-88719500D01*
X218511770Y-88731131D01*
X218511769Y-88731132D01*
X218445447Y-88775447D01*
X218401132Y-88841769D01*
X218401131Y-88841770D01*
X218389500Y-88900247D01*
X218389500Y-90639752D01*
X218401131Y-90698229D01*
X218401132Y-90698230D01*
X218445447Y-90764552D01*
X218511769Y-90808867D01*
X218511770Y-90808868D01*
X218570247Y-90820499D01*
X218570250Y-90820500D01*
X218570252Y-90820500D01*
X219967167Y-90820500D01*
X219988412Y-90826738D01*
X220010501Y-90828318D01*
X220021284Y-90836390D01*
X220034206Y-90840185D01*
X220048705Y-90856918D01*
X220066434Y-90870190D01*
X220071141Y-90882810D01*
X220079961Y-90892989D01*
X220083112Y-90914906D01*
X220090851Y-90935654D01*
X220087988Y-90948814D01*
X220089905Y-90962147D01*
X220080705Y-90982290D01*
X220075999Y-91003927D01*
X220062730Y-91021652D01*
X220060880Y-91025703D01*
X220054848Y-91032181D01*
X219893848Y-91193181D01*
X219832525Y-91226666D01*
X219806167Y-91229500D01*
X218078676Y-91229500D01*
X218011637Y-91209815D01*
X217990995Y-91193181D01*
X217927316Y-91129502D01*
X217927314Y-91129500D01*
X217836929Y-91077316D01*
X217813187Y-91063608D01*
X217749539Y-91046554D01*
X217685892Y-91029500D01*
X217554108Y-91029500D01*
X217426812Y-91063608D01*
X217312686Y-91129500D01*
X217312683Y-91129502D01*
X217219502Y-91222683D01*
X217219500Y-91222686D01*
X217153608Y-91336812D01*
X217119500Y-91464108D01*
X217119500Y-91595891D01*
X217153608Y-91723187D01*
X217180902Y-91770460D01*
X217219500Y-91837314D01*
X217312686Y-91930500D01*
X217426814Y-91996392D01*
X217554108Y-92030500D01*
X217554110Y-92030500D01*
X217635695Y-92030500D01*
X217702734Y-92050185D01*
X217748489Y-92102989D01*
X217756430Y-92155981D01*
X217759500Y-92155981D01*
X217759500Y-92295891D01*
X217793608Y-92423187D01*
X217808800Y-92449500D01*
X217859500Y-92537314D01*
X217952686Y-92630500D01*
X218066814Y-92696392D01*
X218194108Y-92730500D01*
X218194110Y-92730500D01*
X218325890Y-92730500D01*
X218325892Y-92730500D01*
X218453186Y-92696392D01*
X218567314Y-92630500D01*
X218630995Y-92566819D01*
X218692318Y-92533334D01*
X218718676Y-92530500D01*
X219215167Y-92530500D01*
X219282206Y-92550185D01*
X219327961Y-92602989D01*
X219337905Y-92672147D01*
X219308880Y-92735703D01*
X219302848Y-92742181D01*
X216599541Y-95445487D01*
X216599535Y-95445495D01*
X216559982Y-95514004D01*
X216559979Y-95514009D01*
X216539500Y-95590439D01*
X216539500Y-97724692D01*
X216538381Y-97728502D01*
X216539262Y-97732376D01*
X216528614Y-97761761D01*
X216519815Y-97791731D01*
X216516424Y-97795406D01*
X216515461Y-97798067D01*
X216506882Y-97805753D01*
X216490739Y-97823257D01*
X216484400Y-97828095D01*
X216412686Y-97869500D01*
X216356322Y-97925863D01*
X216349739Y-97930889D01*
X216324541Y-97940558D01*
X216300858Y-97953490D01*
X216292413Y-97952886D01*
X216284507Y-97955920D01*
X216258084Y-97950431D01*
X216231166Y-97948506D01*
X216224386Y-97943430D01*
X216216098Y-97941709D01*
X216196839Y-97922808D01*
X216175233Y-97906634D01*
X216172273Y-97898700D01*
X216166231Y-97892770D01*
X216160246Y-97866454D01*
X216150816Y-97841170D01*
X216150500Y-97832324D01*
X216150500Y-88085833D01*
X216170185Y-88018794D01*
X216186819Y-87998152D01*
X217058441Y-87126530D01*
X218389500Y-87126530D01*
X218389500Y-87333469D01*
X218429868Y-87536412D01*
X218429870Y-87536420D01*
X218487474Y-87675489D01*
X218509059Y-87727598D01*
X218566541Y-87813626D01*
X218624024Y-87899657D01*
X218770342Y-88045975D01*
X218770345Y-88045977D01*
X218942402Y-88160941D01*
X219133580Y-88240130D01*
X219298855Y-88273005D01*
X219336530Y-88280499D01*
X219336534Y-88280500D01*
X219336535Y-88280500D01*
X219543466Y-88280500D01*
X219543467Y-88280499D01*
X219746420Y-88240130D01*
X219937598Y-88160941D01*
X220109655Y-88045977D01*
X220255977Y-87899655D01*
X220370941Y-87727598D01*
X220450130Y-87536420D01*
X220490500Y-87333465D01*
X220490500Y-87126535D01*
X220450130Y-86923580D01*
X220370941Y-86732402D01*
X220255977Y-86560345D01*
X220255975Y-86560342D01*
X220109657Y-86414024D01*
X220023626Y-86356541D01*
X219937598Y-86299059D01*
X219746420Y-86219870D01*
X219746412Y-86219868D01*
X219543469Y-86179500D01*
X219543465Y-86179500D01*
X219336535Y-86179500D01*
X219336530Y-86179500D01*
X219133587Y-86219868D01*
X219133579Y-86219870D01*
X218942403Y-86299058D01*
X218770342Y-86414024D01*
X218624024Y-86560342D01*
X218509058Y-86732403D01*
X218429870Y-86923579D01*
X218429868Y-86923587D01*
X218389500Y-87126530D01*
X217058441Y-87126530D01*
X220010863Y-84174108D01*
X226539500Y-84174108D01*
X226539500Y-84305891D01*
X226573608Y-84433187D01*
X226593616Y-84467841D01*
X226639500Y-84547314D01*
X226732686Y-84640500D01*
X226846814Y-84706392D01*
X226974108Y-84740500D01*
X226974110Y-84740500D01*
X227105890Y-84740500D01*
X227105892Y-84740500D01*
X227233186Y-84706392D01*
X227347314Y-84640500D01*
X227410995Y-84576819D01*
X227472318Y-84543334D01*
X227498676Y-84540500D01*
X233178030Y-84540500D01*
X233245069Y-84560185D01*
X233265711Y-84576819D01*
X245623181Y-96934289D01*
X245656666Y-96995612D01*
X245659500Y-97021970D01*
X245659500Y-97621323D01*
X245639815Y-97688362D01*
X245623182Y-97709004D01*
X245559500Y-97772686D01*
X245493608Y-97886812D01*
X245459500Y-98014108D01*
X245459500Y-98145891D01*
X245493608Y-98273187D01*
X245501766Y-98287316D01*
X245559500Y-98387314D01*
X245559502Y-98387316D01*
X245623181Y-98450995D01*
X245656666Y-98512318D01*
X245659500Y-98538676D01*
X245659500Y-100128363D01*
X245639815Y-100195402D01*
X245587011Y-100241157D01*
X245517853Y-100251101D01*
X245473500Y-100235750D01*
X245383189Y-100183609D01*
X245383186Y-100183608D01*
X245255892Y-100149500D01*
X245124108Y-100149500D01*
X244996812Y-100183608D01*
X244882686Y-100249500D01*
X244882683Y-100249502D01*
X244789502Y-100342683D01*
X244789500Y-100342686D01*
X244723608Y-100456812D01*
X244720500Y-100468413D01*
X244689500Y-100584108D01*
X244689500Y-100715892D01*
X244706554Y-100779539D01*
X244723608Y-100843187D01*
X244748759Y-100886748D01*
X244782887Y-100945860D01*
X244799500Y-101007860D01*
X244799500Y-108689562D01*
X244807539Y-108719562D01*
X244819979Y-108765990D01*
X244819982Y-108765995D01*
X244842783Y-108805489D01*
X244842784Y-108805489D01*
X244859540Y-108834511D01*
X247105489Y-111080460D01*
X247164829Y-111114720D01*
X247174008Y-111120020D01*
X247174012Y-111120022D01*
X247250438Y-111140500D01*
X247250440Y-111140500D01*
X248729560Y-111140500D01*
X248729562Y-111140500D01*
X248805989Y-111120021D01*
X248874511Y-111080460D01*
X248930460Y-111024511D01*
X249690460Y-110264511D01*
X249699115Y-110249520D01*
X249730021Y-110195989D01*
X249750500Y-110119562D01*
X249750500Y-107148676D01*
X249770185Y-107081637D01*
X249786819Y-107060995D01*
X249850500Y-106997314D01*
X249916392Y-106883186D01*
X249950500Y-106755892D01*
X249950500Y-106624108D01*
X249916392Y-106496814D01*
X249850500Y-106382686D01*
X249757314Y-106289500D01*
X249700250Y-106256554D01*
X249643187Y-106223608D01*
X249579539Y-106206554D01*
X249515892Y-106189500D01*
X249384108Y-106189500D01*
X249256812Y-106223608D01*
X249142686Y-106289500D01*
X249142683Y-106289502D01*
X249049502Y-106382683D01*
X249049500Y-106382686D01*
X248983608Y-106496812D01*
X248949500Y-106624108D01*
X248949500Y-106755891D01*
X248983608Y-106883187D01*
X249016554Y-106940250D01*
X249049500Y-106997314D01*
X249049502Y-106997316D01*
X249113181Y-107060995D01*
X249146666Y-107122318D01*
X249149500Y-107148676D01*
X249149500Y-109062074D01*
X249129815Y-109129113D01*
X249077011Y-109174868D01*
X249007853Y-109184812D01*
X248944297Y-109155787D01*
X248937819Y-109149755D01*
X248887316Y-109099252D01*
X248887314Y-109099250D01*
X248830250Y-109066304D01*
X248773187Y-109033358D01*
X248709539Y-109016304D01*
X248645892Y-108999250D01*
X248514108Y-108999250D01*
X248386812Y-109033358D01*
X248272686Y-109099250D01*
X248272683Y-109099252D01*
X248209005Y-109162931D01*
X248147682Y-109196416D01*
X248121324Y-109199250D01*
X246955583Y-109199250D01*
X246888544Y-109179565D01*
X246867902Y-109162931D01*
X246296819Y-108591848D01*
X246263334Y-108530525D01*
X246260500Y-108504167D01*
X246260500Y-101054108D01*
X248699500Y-101054108D01*
X248699500Y-101185892D01*
X248706319Y-101211340D01*
X248733608Y-101313187D01*
X248765070Y-101367680D01*
X248799500Y-101427314D01*
X248892686Y-101520500D01*
X249006814Y-101586392D01*
X249134108Y-101620500D01*
X249134110Y-101620500D01*
X249224167Y-101620500D01*
X249253607Y-101629144D01*
X249283594Y-101635668D01*
X249288609Y-101639422D01*
X249291206Y-101640185D01*
X249311848Y-101656819D01*
X249383181Y-101728152D01*
X249416666Y-101789475D01*
X249419500Y-101815833D01*
X249419500Y-102108801D01*
X249433152Y-102159752D01*
X249439979Y-102185229D01*
X249439982Y-102185234D01*
X249463455Y-102225892D01*
X249463456Y-102225892D01*
X249479537Y-102253746D01*
X249479539Y-102253748D01*
X249479540Y-102253750D01*
X249860301Y-102634511D01*
X249916250Y-102690460D01*
X249916252Y-102690461D01*
X249916256Y-102690464D01*
X249984765Y-102730017D01*
X249984772Y-102730021D01*
X250061199Y-102750500D01*
X250061201Y-102750500D01*
X250678799Y-102750500D01*
X250678801Y-102750500D01*
X250755228Y-102730021D01*
X250823750Y-102690460D01*
X250879699Y-102634511D01*
X251017391Y-102496819D01*
X251078714Y-102463334D01*
X251105072Y-102460500D01*
X260281324Y-102460500D01*
X260348363Y-102480185D01*
X260369005Y-102496819D01*
X260432686Y-102560500D01*
X260546814Y-102626392D01*
X260674108Y-102660500D01*
X260674110Y-102660500D01*
X260805890Y-102660500D01*
X260805892Y-102660500D01*
X260933186Y-102626392D01*
X261047314Y-102560500D01*
X261140500Y-102467314D01*
X261206392Y-102353186D01*
X261240500Y-102225892D01*
X261240500Y-102094108D01*
X261206392Y-101966814D01*
X261140500Y-101852686D01*
X261047314Y-101759500D01*
X260990250Y-101726554D01*
X260933187Y-101693608D01*
X260869539Y-101676554D01*
X260805892Y-101659500D01*
X260674108Y-101659500D01*
X260546812Y-101693608D01*
X260432686Y-101759500D01*
X260432683Y-101759502D01*
X260369005Y-101823181D01*
X260307682Y-101856666D01*
X260281324Y-101859500D01*
X250994500Y-101859500D01*
X250927461Y-101839815D01*
X250881706Y-101787011D01*
X250871939Y-101742118D01*
X250871561Y-101742168D01*
X250870963Y-101737631D01*
X250870500Y-101735500D01*
X250870500Y-101734110D01*
X250870500Y-101734108D01*
X250836392Y-101606814D01*
X250770500Y-101492686D01*
X250706818Y-101429004D01*
X250673334Y-101367680D01*
X250670500Y-101341323D01*
X250670500Y-100936087D01*
X250669439Y-100928029D01*
X250670175Y-100927931D01*
X250667750Y-100909497D01*
X250667750Y-100197688D01*
X250663977Y-100183609D01*
X250663976Y-100183604D01*
X250647273Y-100121263D01*
X250621076Y-100075890D01*
X250607710Y-100052739D01*
X250186819Y-99631848D01*
X250153334Y-99570525D01*
X250150500Y-99544167D01*
X250150500Y-99454110D01*
X250150500Y-99454108D01*
X250116392Y-99326814D01*
X250050500Y-99212686D01*
X249957314Y-99119500D01*
X249874777Y-99071847D01*
X249843187Y-99053608D01*
X249775714Y-99035529D01*
X249715892Y-99019500D01*
X249584108Y-99019500D01*
X249456812Y-99053608D01*
X249342686Y-99119500D01*
X249342683Y-99119502D01*
X249249502Y-99212683D01*
X249249500Y-99212686D01*
X249183608Y-99326812D01*
X249149500Y-99454108D01*
X249149500Y-99585892D01*
X249155826Y-99609500D01*
X249183608Y-99713187D01*
X249216554Y-99770250D01*
X249249500Y-99827314D01*
X249342686Y-99920500D01*
X249456814Y-99986392D01*
X249584108Y-100020500D01*
X249584110Y-100020500D01*
X249674167Y-100020500D01*
X249741206Y-100040185D01*
X249761848Y-100056819D01*
X250030431Y-100325402D01*
X250063916Y-100386725D01*
X250066750Y-100413083D01*
X250066750Y-101012461D01*
X250067811Y-101020520D01*
X250064941Y-101020897D01*
X250064885Y-101023247D01*
X250069500Y-101038889D01*
X250069500Y-101265167D01*
X250049815Y-101332206D01*
X249997011Y-101377961D01*
X249927853Y-101387905D01*
X249864297Y-101358880D01*
X249857819Y-101352848D01*
X249736819Y-101231848D01*
X249730401Y-101220095D01*
X249720271Y-101211340D01*
X249713983Y-101190027D01*
X249703334Y-101170525D01*
X249700526Y-101144417D01*
X249700500Y-101144326D01*
X249700512Y-101144283D01*
X249700500Y-101144167D01*
X249700500Y-101054110D01*
X249700500Y-101054108D01*
X249666392Y-100926814D01*
X249660017Y-100915773D01*
X249643260Y-100886748D01*
X249600500Y-100812686D01*
X249507314Y-100719500D01*
X249450250Y-100686554D01*
X249393187Y-100653608D01*
X249329539Y-100636554D01*
X249265892Y-100619500D01*
X249134108Y-100619500D01*
X249006812Y-100653608D01*
X248892686Y-100719500D01*
X248892683Y-100719502D01*
X248799502Y-100812683D01*
X248799500Y-100812686D01*
X248733608Y-100926812D01*
X248711892Y-101007860D01*
X248699500Y-101054108D01*
X246260500Y-101054108D01*
X246260500Y-98538676D01*
X246280185Y-98471637D01*
X246296819Y-98450995D01*
X246301422Y-98446392D01*
X246360500Y-98387314D01*
X246426392Y-98273186D01*
X246460500Y-98145892D01*
X246460500Y-98014108D01*
X246426392Y-97886814D01*
X246360500Y-97772686D01*
X246296818Y-97709004D01*
X246263334Y-97647680D01*
X246260500Y-97621323D01*
X246260500Y-96806576D01*
X246240020Y-96730146D01*
X246240017Y-96730141D01*
X246200464Y-96661632D01*
X246200458Y-96661624D01*
X240242942Y-90704108D01*
X248019500Y-90704108D01*
X248019500Y-90835892D01*
X248023157Y-90849540D01*
X248053608Y-90963187D01*
X248073312Y-90997314D01*
X248119500Y-91077314D01*
X248212686Y-91170500D01*
X248303075Y-91222686D01*
X248321425Y-91233281D01*
X248326814Y-91236392D01*
X248454108Y-91270500D01*
X248454110Y-91270500D01*
X248585890Y-91270500D01*
X248585892Y-91270500D01*
X248713186Y-91236392D01*
X248713194Y-91236387D01*
X248720696Y-91233281D01*
X248721249Y-91234618D01*
X248773937Y-91220500D01*
X252909307Y-91220500D01*
X252909309Y-91220500D01*
X253023886Y-91189799D01*
X253031724Y-91185273D01*
X253061625Y-91172886D01*
X253123186Y-91156392D01*
X253237314Y-91090500D01*
X253330500Y-90997314D01*
X253396392Y-90883186D01*
X253410660Y-90829934D01*
X253442751Y-90774350D01*
X255168990Y-89048111D01*
X255216228Y-89020842D01*
X255215674Y-89019504D01*
X255223180Y-89016393D01*
X255223186Y-89016392D01*
X255337314Y-88950500D01*
X255430500Y-88857314D01*
X255496392Y-88743186D01*
X255530500Y-88615892D01*
X255530500Y-88484108D01*
X255496392Y-88356814D01*
X255430500Y-88242686D01*
X255337314Y-88149500D01*
X255280250Y-88116554D01*
X255223187Y-88083608D01*
X255159539Y-88066554D01*
X255095892Y-88049500D01*
X254964108Y-88049500D01*
X254836812Y-88083608D01*
X254722686Y-88149500D01*
X254722683Y-88149502D01*
X254629502Y-88242683D01*
X254629498Y-88242689D01*
X254563606Y-88356816D01*
X254560495Y-88364328D01*
X254559161Y-88363775D01*
X254531886Y-88411009D01*
X252706893Y-90236002D01*
X252683560Y-90254318D01*
X252682363Y-90255044D01*
X252622686Y-90289500D01*
X252618174Y-90294011D01*
X252605844Y-90301497D01*
X252578345Y-90308811D01*
X252551808Y-90319070D01*
X252541496Y-90319500D01*
X248773937Y-90319500D01*
X248721249Y-90305381D01*
X248720696Y-90306719D01*
X248713188Y-90303609D01*
X248713186Y-90303608D01*
X248585892Y-90269500D01*
X248454108Y-90269500D01*
X248326812Y-90303608D01*
X248212686Y-90369500D01*
X248212683Y-90369502D01*
X248119502Y-90462683D01*
X248119500Y-90462686D01*
X248053608Y-90576812D01*
X248028754Y-90669572D01*
X248019500Y-90704108D01*
X240242942Y-90704108D01*
X235061015Y-85522181D01*
X235027530Y-85460858D01*
X235032514Y-85391166D01*
X235074386Y-85335233D01*
X235139850Y-85310816D01*
X235148696Y-85310500D01*
X254829560Y-85310500D01*
X254829562Y-85310500D01*
X254905989Y-85290021D01*
X254974511Y-85250460D01*
X255030460Y-85194511D01*
X259460460Y-80764511D01*
X259489327Y-80714511D01*
X259500021Y-80695989D01*
X259520500Y-80619562D01*
X259520500Y-71125832D01*
X259529144Y-71096391D01*
X259535668Y-71066405D01*
X259539422Y-71061389D01*
X259540185Y-71058793D01*
X259556815Y-71038155D01*
X259688151Y-70906818D01*
X259749474Y-70873334D01*
X259775832Y-70870500D01*
X259895890Y-70870500D01*
X259895892Y-70870500D01*
X260023186Y-70836392D01*
X260137314Y-70770500D01*
X260230500Y-70677314D01*
X260296392Y-70563186D01*
X260330500Y-70435892D01*
X260330500Y-70304108D01*
X260296392Y-70176814D01*
X260230500Y-70062686D01*
X260137314Y-69969500D01*
X260071491Y-69931497D01*
X260023187Y-69903608D01*
X259959539Y-69886554D01*
X259895892Y-69869500D01*
X259764108Y-69869500D01*
X259636812Y-69903608D01*
X259522686Y-69969500D01*
X259522683Y-69969502D01*
X259429502Y-70062683D01*
X259429500Y-70062686D01*
X259363608Y-70176812D01*
X259329500Y-70304108D01*
X259329500Y-70364167D01*
X259309815Y-70431206D01*
X259293181Y-70451848D01*
X258979541Y-70765487D01*
X258979535Y-70765495D01*
X258939982Y-70834004D01*
X258939979Y-70834009D01*
X258919500Y-70910439D01*
X258919500Y-80404167D01*
X258899815Y-80471206D01*
X258883181Y-80491848D01*
X254701848Y-84673181D01*
X254640525Y-84706666D01*
X254614167Y-84709500D01*
X235329217Y-84709500D01*
X235301740Y-84701431D01*
X235273559Y-84696307D01*
X235268636Y-84691711D01*
X235262178Y-84689815D01*
X235243426Y-84668174D01*
X235222488Y-84648626D01*
X235219837Y-84640951D01*
X235216423Y-84637011D01*
X235209026Y-84616000D01*
X235207051Y-84608217D01*
X235207051Y-84607557D01*
X235203886Y-84595747D01*
X235203697Y-84595000D01*
X235204963Y-84560872D01*
X235205776Y-84526743D01*
X235206256Y-84526033D01*
X235206288Y-84525178D01*
X235225796Y-84497163D01*
X235244939Y-84468880D01*
X235245726Y-84468542D01*
X235246215Y-84467841D01*
X235277775Y-84454819D01*
X235309168Y-84441377D01*
X235310556Y-84441294D01*
X235310804Y-84441192D01*
X235311166Y-84441257D01*
X235323888Y-84440500D01*
X253469560Y-84440500D01*
X253469562Y-84440500D01*
X253545989Y-84420021D01*
X253614511Y-84380460D01*
X253670460Y-84324511D01*
X255650460Y-82344511D01*
X255679616Y-82294011D01*
X255690021Y-82275989D01*
X255710500Y-82199562D01*
X255710500Y-73748676D01*
X255730185Y-73681637D01*
X255746819Y-73660995D01*
X255810500Y-73597314D01*
X255876392Y-73483186D01*
X255910500Y-73355892D01*
X255910500Y-73224108D01*
X255876392Y-73096814D01*
X255810500Y-72982686D01*
X255717314Y-72889500D01*
X255660250Y-72856554D01*
X255603187Y-72823608D01*
X255529910Y-72803974D01*
X255475892Y-72789500D01*
X255344108Y-72789500D01*
X255216812Y-72823608D01*
X255102686Y-72889500D01*
X255102683Y-72889502D01*
X255009502Y-72982683D01*
X255009500Y-72982686D01*
X254943608Y-73096812D01*
X254909500Y-73224108D01*
X254909500Y-73355891D01*
X254943608Y-73483187D01*
X254958800Y-73509500D01*
X255009500Y-73597314D01*
X255009502Y-73597316D01*
X255073181Y-73660995D01*
X255106666Y-73722318D01*
X255109500Y-73748676D01*
X255109500Y-81984167D01*
X255089815Y-82051206D01*
X255073181Y-82071848D01*
X253341848Y-83803181D01*
X253280525Y-83836666D01*
X253254167Y-83839500D01*
X235268174Y-83839500D01*
X235201135Y-83819815D01*
X235180493Y-83803181D01*
X235160302Y-83782990D01*
X235160294Y-83782984D01*
X235091785Y-83743431D01*
X235091780Y-83743428D01*
X235066303Y-83736601D01*
X235015352Y-83722949D01*
X234397750Y-83722949D01*
X234359536Y-83733188D01*
X234321321Y-83743428D01*
X234321316Y-83743431D01*
X234252807Y-83782984D01*
X234252799Y-83782990D01*
X234232609Y-83803181D01*
X234205681Y-83817884D01*
X234179863Y-83834477D01*
X234173662Y-83835368D01*
X234171286Y-83836666D01*
X234144928Y-83839500D01*
X234065291Y-83839500D01*
X233998252Y-83819815D01*
X233977610Y-83803181D01*
X233903729Y-83729300D01*
X233870244Y-83667977D01*
X233867410Y-83641619D01*
X233867410Y-83551562D01*
X233867410Y-83551560D01*
X233833302Y-83424266D01*
X233767410Y-83310138D01*
X233674224Y-83216952D01*
X233617160Y-83184006D01*
X233560097Y-83151060D01*
X233496449Y-83134006D01*
X233432802Y-83116952D01*
X233301018Y-83116952D01*
X233173722Y-83151060D01*
X233059596Y-83216952D01*
X233059593Y-83216954D01*
X232966412Y-83310135D01*
X232966410Y-83310138D01*
X232900518Y-83424264D01*
X232866410Y-83551560D01*
X232866410Y-83683344D01*
X232893108Y-83782984D01*
X232893222Y-83783407D01*
X232891559Y-83853257D01*
X232852396Y-83911119D01*
X232788168Y-83938623D01*
X232773447Y-83939500D01*
X227498676Y-83939500D01*
X227431637Y-83919815D01*
X227410995Y-83903181D01*
X227347316Y-83839502D01*
X227347314Y-83839500D01*
X227284408Y-83803181D01*
X227233187Y-83773608D01*
X227169539Y-83756554D01*
X227105892Y-83739500D01*
X226974108Y-83739500D01*
X226846812Y-83773608D01*
X226732686Y-83839500D01*
X226732683Y-83839502D01*
X226639502Y-83932683D01*
X226639500Y-83932686D01*
X226573608Y-84046812D01*
X226539500Y-84174108D01*
X220010863Y-84174108D01*
X221438152Y-82746819D01*
X221499475Y-82713334D01*
X221525833Y-82710500D01*
X233791324Y-82710500D01*
X233858363Y-82730185D01*
X233879005Y-82746819D01*
X233942686Y-82810500D01*
X234056814Y-82876392D01*
X234184108Y-82910500D01*
X234184110Y-82910500D01*
X234315890Y-82910500D01*
X234315892Y-82910500D01*
X234443186Y-82876392D01*
X234557314Y-82810500D01*
X234650500Y-82717314D01*
X234716392Y-82603186D01*
X234750500Y-82475892D01*
X234750500Y-82344108D01*
X234716392Y-82216814D01*
X234650500Y-82102686D01*
X234586817Y-82039003D01*
X234553334Y-81977680D01*
X234550500Y-81951323D01*
X234550500Y-81604108D01*
X235920250Y-81604108D01*
X235920250Y-81735892D01*
X235925857Y-81756819D01*
X235954358Y-81863187D01*
X235987304Y-81920250D01*
X236020250Y-81977314D01*
X236113436Y-82070500D01*
X236180986Y-82109500D01*
X236226557Y-82135811D01*
X236227564Y-82136392D01*
X236354858Y-82170500D01*
X236354860Y-82170500D01*
X236486640Y-82170500D01*
X236486642Y-82170500D01*
X236613936Y-82136392D01*
X236728064Y-82070500D01*
X236821250Y-81977314D01*
X236887142Y-81863186D01*
X236921250Y-81735892D01*
X236921250Y-81604108D01*
X236887142Y-81476814D01*
X236821250Y-81362686D01*
X236757568Y-81299004D01*
X236724084Y-81237680D01*
X236721250Y-81211323D01*
X236721250Y-80600000D01*
X240171937Y-80600000D01*
X240171938Y-80600000D01*
X252482269Y-80600000D01*
X252482270Y-80600000D01*
X252492007Y-67620000D01*
X240201149Y-67620000D01*
X240171937Y-80600000D01*
X236721250Y-80600000D01*
X236721250Y-74543326D01*
X236740935Y-74476287D01*
X236783246Y-74435942D01*
X236827314Y-74410500D01*
X236920500Y-74317314D01*
X236986392Y-74203186D01*
X237020500Y-74075892D01*
X237020500Y-73944108D01*
X236986392Y-73816814D01*
X236920500Y-73702686D01*
X236827314Y-73609500D01*
X236770250Y-73576554D01*
X236713187Y-73543608D01*
X236649539Y-73526554D01*
X236585892Y-73509500D01*
X236454108Y-73509500D01*
X236326812Y-73543608D01*
X236212686Y-73609500D01*
X236212683Y-73609502D01*
X236119502Y-73702683D01*
X236119500Y-73702686D01*
X236053608Y-73816812D01*
X236019500Y-73944108D01*
X236019500Y-74075892D01*
X236053608Y-74203186D01*
X236103637Y-74289839D01*
X236120250Y-74351838D01*
X236120250Y-81211323D01*
X236100565Y-81278362D01*
X236083932Y-81299004D01*
X236020250Y-81362686D01*
X235954358Y-81476812D01*
X235920250Y-81604108D01*
X234550500Y-81604108D01*
X234550500Y-79720439D01*
X234530020Y-79644009D01*
X234530017Y-79644004D01*
X234490464Y-79575495D01*
X234490458Y-79575487D01*
X226954510Y-72039539D01*
X226933682Y-72027514D01*
X226912853Y-72015489D01*
X226897824Y-72006812D01*
X226885990Y-71999979D01*
X226885991Y-71999979D01*
X226847775Y-71989739D01*
X226809562Y-71979500D01*
X226809560Y-71979500D01*
X223798676Y-71979500D01*
X223731637Y-71959815D01*
X223710995Y-71943181D01*
X223647316Y-71879502D01*
X223647314Y-71879500D01*
X223562442Y-71830499D01*
X223533187Y-71813608D01*
X223468931Y-71796391D01*
X223405892Y-71779500D01*
X223274108Y-71779500D01*
X223146812Y-71813608D01*
X223032686Y-71879500D01*
X223032683Y-71879502D01*
X222939502Y-71972683D01*
X222939500Y-71972686D01*
X222873607Y-72086814D01*
X222873607Y-72086815D01*
X222860491Y-72135764D01*
X222824126Y-72195424D01*
X222761278Y-72225952D01*
X222691903Y-72217657D01*
X222638026Y-72173171D01*
X222620942Y-72135762D01*
X222620500Y-72134112D01*
X222620500Y-72134108D01*
X222586392Y-72006814D01*
X222520500Y-71892686D01*
X222427314Y-71799500D01*
X222370250Y-71766554D01*
X222313187Y-71733608D01*
X222249539Y-71716554D01*
X222185892Y-71699500D01*
X222054108Y-71699500D01*
X221926812Y-71733608D01*
X221812686Y-71799500D01*
X221812683Y-71799502D01*
X221719502Y-71892683D01*
X221719500Y-71892686D01*
X221653608Y-72006812D01*
X221651283Y-72015490D01*
X221619500Y-72134108D01*
X221619500Y-72265892D01*
X221636554Y-72329539D01*
X221653608Y-72393187D01*
X221686554Y-72450250D01*
X221719500Y-72507314D01*
X221812686Y-72600500D01*
X221926814Y-72666392D01*
X222054108Y-72700500D01*
X222054110Y-72700500D01*
X222144167Y-72700500D01*
X222211206Y-72720185D01*
X222231848Y-72736819D01*
X222813181Y-73318152D01*
X222846666Y-73379475D01*
X222849500Y-73405833D01*
X222849500Y-80409562D01*
X222858155Y-80441862D01*
X222869978Y-80485988D01*
X222872543Y-80490429D01*
X222872545Y-80490438D01*
X222872547Y-80490438D01*
X222909535Y-80554504D01*
X222909541Y-80554512D01*
X223262848Y-80907819D01*
X223296333Y-80969142D01*
X223291349Y-81038834D01*
X223249477Y-81094767D01*
X223184013Y-81119184D01*
X223175167Y-81119500D01*
X221130438Y-81119500D01*
X221092224Y-81129739D01*
X221054009Y-81139979D01*
X221019923Y-81159659D01*
X221002879Y-81169500D01*
X221002877Y-81169500D01*
X221002877Y-81169501D01*
X220985492Y-81179537D01*
X220985487Y-81179541D01*
X214489541Y-87675487D01*
X214489535Y-87675495D01*
X214449982Y-87744004D01*
X214449979Y-87744009D01*
X214429500Y-87820439D01*
X214429500Y-100793035D01*
X214409815Y-100860074D01*
X214357011Y-100905829D01*
X214287853Y-100915773D01*
X214224297Y-100886748D01*
X214217819Y-100880716D01*
X211178113Y-97841010D01*
X211150841Y-97793771D01*
X211149504Y-97794326D01*
X211146392Y-97786815D01*
X211146392Y-97786814D01*
X211080500Y-97672686D01*
X210991238Y-97583424D01*
X210957753Y-97522101D01*
X210962737Y-97452409D01*
X210978326Y-97428231D01*
X210978336Y-97420887D01*
X210978337Y-97420888D01*
X211018338Y-69000000D01*
X210179995Y-69000000D01*
X210150325Y-68991288D01*
X180802743Y-69031767D01*
X180732712Y-97304533D01*
X180732713Y-97304533D01*
X180752244Y-97304253D01*
X181748908Y-97290015D01*
X181751033Y-97290004D01*
X210235820Y-97417562D01*
X210302768Y-97437547D01*
X210348286Y-97490555D01*
X210357920Y-97559757D01*
X210328610Y-97623183D01*
X210322944Y-97629241D01*
X210279503Y-97672682D01*
X210279500Y-97672686D01*
X210213608Y-97786812D01*
X210181503Y-97906634D01*
X210179500Y-97914108D01*
X210179500Y-98045892D01*
X210196554Y-98109539D01*
X210213608Y-98173187D01*
X210231461Y-98204108D01*
X210279500Y-98287314D01*
X210372686Y-98380500D01*
X210486814Y-98446392D01*
X210486816Y-98446392D01*
X210494326Y-98449504D01*
X210493771Y-98450841D01*
X210541010Y-98478113D01*
X213373181Y-101310284D01*
X213406666Y-101371607D01*
X213409500Y-101397965D01*
X213409500Y-104346062D01*
X213395383Y-104398751D01*
X213396719Y-104399304D01*
X213393608Y-104406814D01*
X213359500Y-104534108D01*
X213359500Y-104665891D01*
X213393608Y-104793187D01*
X213426554Y-104850250D01*
X213459500Y-104907314D01*
X213552686Y-105000500D01*
X213617077Y-105037676D01*
X213666415Y-105066162D01*
X213666814Y-105066392D01*
X213794108Y-105100500D01*
X213794110Y-105100500D01*
X213925890Y-105100500D01*
X213925892Y-105100500D01*
X214053186Y-105066392D01*
X214167314Y-105000500D01*
X214217819Y-104949995D01*
X214279142Y-104916510D01*
X214348834Y-104921494D01*
X214404767Y-104963366D01*
X214429184Y-105028830D01*
X214429500Y-105037676D01*
X214429500Y-107399562D01*
X214443152Y-107450513D01*
X214449979Y-107475990D01*
X214449982Y-107475995D01*
X214489535Y-107544504D01*
X214489539Y-107544509D01*
X214489540Y-107544511D01*
X218119540Y-111174511D01*
X218175489Y-111230460D01*
X218175491Y-111230461D01*
X218175495Y-111230464D01*
X218244004Y-111270017D01*
X218244011Y-111270021D01*
X218320438Y-111290500D01*
X218320440Y-111290500D01*
X220659560Y-111290500D01*
X220659562Y-111290500D01*
X220735989Y-111270021D01*
X220804511Y-111230460D01*
X220860460Y-111174511D01*
X221610899Y-110424071D01*
X221672220Y-110390588D01*
X221741911Y-110395572D01*
X221786259Y-110424073D01*
X221842686Y-110480500D01*
X221956814Y-110546392D01*
X222084108Y-110580500D01*
X222084110Y-110580500D01*
X222215890Y-110580500D01*
X222215892Y-110580500D01*
X222343186Y-110546392D01*
X222457314Y-110480500D01*
X222550500Y-110387314D01*
X222616392Y-110273186D01*
X222650500Y-110145892D01*
X222650500Y-110014108D01*
X222616392Y-109886814D01*
X222550500Y-109772686D01*
X222457314Y-109679500D01*
X222400250Y-109646554D01*
X222343187Y-109613608D01*
X222279539Y-109596554D01*
X222215892Y-109579500D01*
X222084108Y-109579500D01*
X221956812Y-109613608D01*
X221842686Y-109679500D01*
X221842683Y-109679502D01*
X221779005Y-109743181D01*
X221717682Y-109776666D01*
X221691324Y-109779500D01*
X221490438Y-109779500D01*
X221439486Y-109793152D01*
X221414010Y-109799979D01*
X221354934Y-109834087D01*
X221354933Y-109834086D01*
X221345492Y-109839537D01*
X221345487Y-109839541D01*
X220531848Y-110653181D01*
X220470525Y-110686666D01*
X220444167Y-110689500D01*
X218535833Y-110689500D01*
X218468794Y-110669815D01*
X218448152Y-110653181D01*
X215066819Y-107271848D01*
X215033334Y-107210525D01*
X215030500Y-107184167D01*
X215030500Y-88035833D01*
X215050185Y-87968794D01*
X215066819Y-87948152D01*
X215222867Y-87792104D01*
X215380745Y-87634225D01*
X215442066Y-87600742D01*
X215511757Y-87605726D01*
X215567691Y-87647597D01*
X215592108Y-87713062D01*
X215577256Y-87781335D01*
X215575814Y-87783904D01*
X215569979Y-87794010D01*
X215569979Y-87794011D01*
X215549500Y-87870438D01*
X215549500Y-105589562D01*
X215569979Y-105665989D01*
X215607628Y-105731199D01*
X215609540Y-105734511D01*
X216279540Y-106404511D01*
X216335489Y-106460460D01*
X216335491Y-106460461D01*
X216335495Y-106460464D01*
X216398453Y-106496812D01*
X216404011Y-106500021D01*
X216480438Y-106520500D01*
X216480440Y-106520500D01*
X216650321Y-106520500D01*
X216650323Y-106520500D01*
X216726750Y-106500021D01*
X216795272Y-106460460D01*
X216851221Y-106404511D01*
X217148152Y-106107580D01*
X217209475Y-106074095D01*
X217235833Y-106071261D01*
X218594167Y-106071261D01*
X218661206Y-106090946D01*
X218681848Y-106107580D01*
X218978779Y-106404511D01*
X219034728Y-106460460D01*
X219034730Y-106460461D01*
X219034734Y-106460464D01*
X219097692Y-106496812D01*
X219103250Y-106500021D01*
X219179677Y-106520500D01*
X219258801Y-106520500D01*
X221741324Y-106520500D01*
X221808363Y-106540185D01*
X221829005Y-106556819D01*
X221892686Y-106620500D01*
X222006814Y-106686392D01*
X222134108Y-106720500D01*
X222134110Y-106720500D01*
X222265890Y-106720500D01*
X222265892Y-106720500D01*
X222393186Y-106686392D01*
X222507314Y-106620500D01*
X222600500Y-106527314D01*
X222666392Y-106413186D01*
X222700500Y-106285892D01*
X222700500Y-106154108D01*
X222666392Y-106026814D01*
X222600500Y-105912686D01*
X222507314Y-105819500D01*
X222441027Y-105781229D01*
X222393187Y-105753608D01*
X222321914Y-105734511D01*
X222265892Y-105719500D01*
X222134108Y-105719500D01*
X222006812Y-105753608D01*
X221892686Y-105819500D01*
X221892683Y-105819502D01*
X221829005Y-105883181D01*
X221767682Y-105916666D01*
X221741324Y-105919500D01*
X219395072Y-105919500D01*
X219328033Y-105899815D01*
X219307391Y-105883181D01*
X218954510Y-105530300D01*
X218937309Y-105520369D01*
X218920107Y-105510438D01*
X218903048Y-105500589D01*
X218885990Y-105490740D01*
X218860513Y-105483913D01*
X218809562Y-105470261D01*
X217020438Y-105470261D01*
X216982224Y-105480500D01*
X216944009Y-105490740D01*
X216921265Y-105503872D01*
X216909893Y-105510438D01*
X216899671Y-105516339D01*
X216875489Y-105530300D01*
X216653061Y-105752728D01*
X216591738Y-105786213D01*
X216522046Y-105781229D01*
X216477699Y-105752728D01*
X216186819Y-105461848D01*
X216172115Y-105434920D01*
X216155523Y-105409102D01*
X216154631Y-105402901D01*
X216153334Y-105400525D01*
X216150500Y-105374167D01*
X216150500Y-105178956D01*
X216170185Y-105111917D01*
X216222989Y-105066162D01*
X216292147Y-105056218D01*
X216336495Y-105071567D01*
X216396814Y-105106392D01*
X216458369Y-105122885D01*
X216488276Y-105135274D01*
X216496110Y-105139797D01*
X216496111Y-105139797D01*
X216496114Y-105139799D01*
X216610691Y-105170500D01*
X218446063Y-105170500D01*
X218498750Y-105184618D01*
X218499304Y-105183281D01*
X218506807Y-105186388D01*
X218506814Y-105186392D01*
X218634108Y-105220500D01*
X218634110Y-105220500D01*
X218765890Y-105220500D01*
X218765892Y-105220500D01*
X218893186Y-105186392D01*
X219007314Y-105120500D01*
X219100500Y-105027314D01*
X219166392Y-104913186D01*
X219200500Y-104785892D01*
X219200500Y-104654108D01*
X219166392Y-104526814D01*
X219100500Y-104412686D01*
X219007314Y-104319500D01*
X218920712Y-104269500D01*
X218893187Y-104253608D01*
X218786056Y-104224903D01*
X218765892Y-104219500D01*
X218634108Y-104219500D01*
X218506814Y-104253608D01*
X218499304Y-104256719D01*
X218498750Y-104255381D01*
X218446063Y-104269500D01*
X216978503Y-104269500D01*
X216911464Y-104249815D01*
X216903017Y-104243876D01*
X216897317Y-104239502D01*
X216783187Y-104173608D01*
X216719539Y-104156554D01*
X216655892Y-104139500D01*
X216524108Y-104139500D01*
X216396814Y-104173608D01*
X216396813Y-104173608D01*
X216396811Y-104173609D01*
X216396810Y-104173609D01*
X216336500Y-104208430D01*
X216268600Y-104224903D01*
X216202573Y-104202051D01*
X216159383Y-104147130D01*
X216150500Y-104101043D01*
X216150500Y-98707676D01*
X216170185Y-98640637D01*
X216222989Y-98594882D01*
X216292147Y-98584938D01*
X216355703Y-98613963D01*
X216362181Y-98619995D01*
X216412686Y-98670500D01*
X216526814Y-98736392D01*
X216654108Y-98770500D01*
X216654110Y-98770500D01*
X216785890Y-98770500D01*
X216785892Y-98770500D01*
X216913186Y-98736392D01*
X217027314Y-98670500D01*
X217120500Y-98577314D01*
X217186392Y-98463186D01*
X217220500Y-98335892D01*
X217220500Y-98204108D01*
X217186392Y-98076814D01*
X217157112Y-98026099D01*
X217140500Y-97964100D01*
X217140500Y-95805833D01*
X217160185Y-95738794D01*
X217176819Y-95718152D01*
X219808152Y-93086819D01*
X219869475Y-93053334D01*
X219895833Y-93050500D01*
X221681324Y-93050500D01*
X221748363Y-93070185D01*
X221769005Y-93086819D01*
X221832686Y-93150500D01*
X221946814Y-93216392D01*
X222074108Y-93250500D01*
X222074110Y-93250500D01*
X222205890Y-93250500D01*
X222205892Y-93250500D01*
X222333186Y-93216392D01*
X222447314Y-93150500D01*
X222540500Y-93057314D01*
X222606392Y-92943186D01*
X222640500Y-92815892D01*
X222640500Y-92684108D01*
X222606392Y-92556814D01*
X222540500Y-92442686D01*
X222447314Y-92349500D01*
X222390250Y-92316554D01*
X222333187Y-92283608D01*
X222269539Y-92266554D01*
X222205892Y-92249500D01*
X222074108Y-92249500D01*
X221946812Y-92283608D01*
X221832686Y-92349500D01*
X221832683Y-92349502D01*
X221769005Y-92413181D01*
X221707682Y-92446666D01*
X221681324Y-92449500D01*
X220804833Y-92449500D01*
X220737794Y-92429815D01*
X220692039Y-92377011D01*
X220682095Y-92307853D01*
X220711120Y-92244297D01*
X220717152Y-92237819D01*
X221032285Y-91922686D01*
X222120539Y-90834430D01*
X222181860Y-90800947D01*
X222183874Y-90800527D01*
X222286420Y-90780130D01*
X222406974Y-90730194D01*
X222476438Y-90722726D01*
X222538918Y-90754000D01*
X222542104Y-90757075D01*
X225003181Y-93218152D01*
X225036666Y-93279475D01*
X225039500Y-93305833D01*
X225039500Y-95539853D01*
X225019815Y-95606892D01*
X225003181Y-95627534D01*
X223449541Y-97181173D01*
X223449535Y-97181181D01*
X223409982Y-97249690D01*
X223409979Y-97249695D01*
X223399175Y-97290016D01*
X223389500Y-97326124D01*
X223389500Y-109029562D01*
X223398212Y-109062074D01*
X223409979Y-109105989D01*
X223421845Y-109126542D01*
X223421847Y-109126544D01*
X223449539Y-109174510D01*
X224733181Y-110458152D01*
X224766666Y-110519475D01*
X224769500Y-110545833D01*
X224769500Y-110635891D01*
X224803608Y-110763187D01*
X224836554Y-110820250D01*
X224869500Y-110877314D01*
X224869502Y-110877316D01*
X224950014Y-110957828D01*
X224983499Y-111019151D01*
X224978515Y-111088843D01*
X224936643Y-111144776D01*
X224871179Y-111169193D01*
X224862511Y-111169509D01*
X224520000Y-111170000D01*
X224608297Y-123374603D01*
X224589098Y-123441783D01*
X224536626Y-123487919D01*
X224484300Y-123499500D01*
X151624500Y-123499500D01*
X151557461Y-123479815D01*
X151511706Y-123427011D01*
X151500500Y-123375500D01*
X151500500Y-117835513D01*
X155168500Y-117835513D01*
X155168500Y-118024486D01*
X155198059Y-118211118D01*
X155256454Y-118390836D01*
X155332884Y-118540836D01*
X155342240Y-118559199D01*
X155453310Y-118712073D01*
X155586927Y-118845690D01*
X155739801Y-118956760D01*
X155816200Y-118995687D01*
X155908163Y-119042545D01*
X155908165Y-119042545D01*
X155908168Y-119042547D01*
X156004497Y-119073846D01*
X156087881Y-119100940D01*
X156274514Y-119130500D01*
X156274519Y-119130500D01*
X156463486Y-119130500D01*
X156650118Y-119100940D01*
X156829832Y-119042547D01*
X156998199Y-118956760D01*
X157151073Y-118845690D01*
X157284690Y-118712073D01*
X157395760Y-118559199D01*
X157481547Y-118390832D01*
X157539940Y-118211118D01*
X157556363Y-118107423D01*
X157569500Y-118024485D01*
X157569500Y-117839993D01*
X157569500Y-117835519D01*
X157544869Y-117680000D01*
X159890898Y-117680000D01*
X160769999Y-117680000D01*
X160744979Y-117740402D01*
X160720000Y-117865981D01*
X160720000Y-117994019D01*
X160744979Y-118119598D01*
X160769999Y-118180000D01*
X159890898Y-118180000D01*
X159906934Y-118281247D01*
X159979897Y-118505802D01*
X160087085Y-118716171D01*
X160225866Y-118907186D01*
X160392813Y-119074133D01*
X160583828Y-119212914D01*
X160794195Y-119320102D01*
X161018744Y-119393063D01*
X161018750Y-119393065D01*
X161120000Y-119409101D01*
X161120000Y-118530001D01*
X161180402Y-118555021D01*
X161305981Y-118580000D01*
X161434019Y-118580000D01*
X161559598Y-118555021D01*
X161620000Y-118530001D01*
X161620000Y-119409100D01*
X161721249Y-119393065D01*
X161721255Y-119393063D01*
X161945804Y-119320102D01*
X162156171Y-119212914D01*
X162347186Y-119074133D01*
X162514133Y-118907186D01*
X162652914Y-118716171D01*
X162760102Y-118505802D01*
X162833065Y-118281247D01*
X162849102Y-118180000D01*
X161970001Y-118180000D01*
X161995021Y-118119598D01*
X162020000Y-117994019D01*
X162020000Y-117865981D01*
X162013940Y-117835513D01*
X165168500Y-117835513D01*
X165168500Y-118024486D01*
X165198059Y-118211118D01*
X165256454Y-118390836D01*
X165332884Y-118540836D01*
X165342240Y-118559199D01*
X165453310Y-118712073D01*
X165586927Y-118845690D01*
X165739801Y-118956760D01*
X165816200Y-118995687D01*
X165908163Y-119042545D01*
X165908165Y-119042545D01*
X165908168Y-119042547D01*
X166004497Y-119073846D01*
X166087881Y-119100940D01*
X166274514Y-119130500D01*
X166274519Y-119130500D01*
X166463486Y-119130500D01*
X166650118Y-119100940D01*
X166829832Y-119042547D01*
X166998199Y-118956760D01*
X167151073Y-118845690D01*
X167284690Y-118712073D01*
X167395760Y-118559199D01*
X167481547Y-118390832D01*
X167539940Y-118211118D01*
X167556363Y-118107423D01*
X167569500Y-118024485D01*
X167569500Y-117839993D01*
X167569500Y-117835519D01*
X167544869Y-117680000D01*
X169890898Y-117680000D01*
X170769999Y-117680000D01*
X170744979Y-117740402D01*
X170720000Y-117865981D01*
X170720000Y-117994019D01*
X170744979Y-118119598D01*
X170769999Y-118180000D01*
X169890898Y-118180000D01*
X169906934Y-118281247D01*
X169979897Y-118505802D01*
X170087085Y-118716171D01*
X170225866Y-118907186D01*
X170392813Y-119074133D01*
X170583828Y-119212914D01*
X170794195Y-119320102D01*
X171018744Y-119393063D01*
X171018750Y-119393065D01*
X171120000Y-119409101D01*
X171120000Y-118530001D01*
X171180402Y-118555021D01*
X171305981Y-118580000D01*
X171434019Y-118580000D01*
X171559598Y-118555021D01*
X171620000Y-118530001D01*
X171620000Y-119409100D01*
X171721249Y-119393065D01*
X171721255Y-119393063D01*
X171945804Y-119320102D01*
X172156171Y-119212914D01*
X172347186Y-119074133D01*
X172514133Y-118907186D01*
X172652914Y-118716171D01*
X172760102Y-118505802D01*
X172833065Y-118281247D01*
X172849102Y-118180000D01*
X171970001Y-118180000D01*
X171995021Y-118119598D01*
X172020000Y-117994019D01*
X172020000Y-117865981D01*
X172013940Y-117835513D01*
X175168500Y-117835513D01*
X175168500Y-118024486D01*
X175198059Y-118211118D01*
X175256454Y-118390836D01*
X175332884Y-118540836D01*
X175342240Y-118559199D01*
X175453310Y-118712073D01*
X175586927Y-118845690D01*
X175739801Y-118956760D01*
X175816200Y-118995687D01*
X175908163Y-119042545D01*
X175908165Y-119042545D01*
X175908168Y-119042547D01*
X176004497Y-119073846D01*
X176087881Y-119100940D01*
X176274514Y-119130500D01*
X176274519Y-119130500D01*
X176463486Y-119130500D01*
X176650118Y-119100940D01*
X176829832Y-119042547D01*
X176998199Y-118956760D01*
X177151073Y-118845690D01*
X177284690Y-118712073D01*
X177395760Y-118559199D01*
X177481547Y-118390832D01*
X177539940Y-118211118D01*
X177569500Y-118024481D01*
X177569500Y-117835519D01*
X177569500Y-117835514D01*
X177553811Y-117736462D01*
X177553811Y-117736460D01*
X177544869Y-117680000D01*
X179890898Y-117680000D01*
X180769999Y-117680000D01*
X180744979Y-117740402D01*
X180720000Y-117865981D01*
X180720000Y-117994019D01*
X180744979Y-118119598D01*
X180769999Y-118180000D01*
X179890898Y-118180000D01*
X179906934Y-118281247D01*
X179979897Y-118505802D01*
X180087085Y-118716171D01*
X180225866Y-118907186D01*
X180392813Y-119074133D01*
X180583828Y-119212914D01*
X180794195Y-119320102D01*
X181018744Y-119393063D01*
X181018750Y-119393065D01*
X181120000Y-119409101D01*
X181120000Y-118530001D01*
X181180402Y-118555021D01*
X181305981Y-118580000D01*
X181434019Y-118580000D01*
X181559598Y-118555021D01*
X181620000Y-118530001D01*
X181620000Y-119409100D01*
X181721249Y-119393065D01*
X181721255Y-119393063D01*
X181945804Y-119320102D01*
X182156171Y-119212914D01*
X182347186Y-119074133D01*
X182514133Y-118907186D01*
X182652914Y-118716171D01*
X182760102Y-118505802D01*
X182833065Y-118281247D01*
X182849102Y-118180000D01*
X181970001Y-118180000D01*
X181995021Y-118119598D01*
X182020000Y-117994019D01*
X182020000Y-117985513D01*
X190058500Y-117985513D01*
X190058500Y-118174486D01*
X190088059Y-118361118D01*
X190146454Y-118540836D01*
X190205033Y-118655802D01*
X190232240Y-118709199D01*
X190343310Y-118862073D01*
X190476927Y-118995690D01*
X190629801Y-119106760D01*
X190676394Y-119130500D01*
X190798163Y-119192545D01*
X190798165Y-119192545D01*
X190798168Y-119192547D01*
X190860851Y-119212914D01*
X190977881Y-119250940D01*
X191164514Y-119280500D01*
X191164519Y-119280500D01*
X191353486Y-119280500D01*
X191540118Y-119250940D01*
X191719832Y-119192547D01*
X191888199Y-119106760D01*
X192041073Y-118995690D01*
X192174690Y-118862073D01*
X192285760Y-118709199D01*
X192371547Y-118540832D01*
X192429940Y-118361118D01*
X192449457Y-118237890D01*
X192459500Y-118174485D01*
X192459500Y-117989993D01*
X192459500Y-117985519D01*
X192434869Y-117830000D01*
X194780898Y-117830000D01*
X195659999Y-117830000D01*
X195634979Y-117890402D01*
X195610000Y-118015981D01*
X195610000Y-118144019D01*
X195634979Y-118269598D01*
X195659999Y-118330000D01*
X194780898Y-118330000D01*
X194796934Y-118431247D01*
X194869897Y-118655802D01*
X194977085Y-118866171D01*
X195115866Y-119057186D01*
X195282813Y-119224133D01*
X195473828Y-119362914D01*
X195684195Y-119470102D01*
X195908744Y-119543063D01*
X195908750Y-119543065D01*
X196010000Y-119559101D01*
X196010000Y-118680001D01*
X196070402Y-118705021D01*
X196195981Y-118730000D01*
X196324019Y-118730000D01*
X196449598Y-118705021D01*
X196510000Y-118680001D01*
X196510000Y-119559100D01*
X196611249Y-119543065D01*
X196611255Y-119543063D01*
X196835804Y-119470102D01*
X197046171Y-119362914D01*
X197237186Y-119224133D01*
X197404133Y-119057186D01*
X197542914Y-118866171D01*
X197650102Y-118655802D01*
X197723065Y-118431247D01*
X197739102Y-118330000D01*
X196860001Y-118330000D01*
X196885021Y-118269598D01*
X196910000Y-118144019D01*
X196910000Y-118015981D01*
X196903940Y-117985513D01*
X200058500Y-117985513D01*
X200058500Y-118174486D01*
X200088059Y-118361118D01*
X200146454Y-118540836D01*
X200205033Y-118655802D01*
X200232240Y-118709199D01*
X200343310Y-118862073D01*
X200476927Y-118995690D01*
X200629801Y-119106760D01*
X200676394Y-119130500D01*
X200798163Y-119192545D01*
X200798165Y-119192545D01*
X200798168Y-119192547D01*
X200860851Y-119212914D01*
X200977881Y-119250940D01*
X201164514Y-119280500D01*
X201164519Y-119280500D01*
X201353486Y-119280500D01*
X201540118Y-119250940D01*
X201719832Y-119192547D01*
X201888199Y-119106760D01*
X202041073Y-118995690D01*
X202174690Y-118862073D01*
X202285760Y-118709199D01*
X202371547Y-118540832D01*
X202429940Y-118361118D01*
X202449457Y-118237890D01*
X202459500Y-118174485D01*
X202459500Y-117989993D01*
X202459500Y-117985519D01*
X202434869Y-117830000D01*
X204780898Y-117830000D01*
X205659999Y-117830000D01*
X205634979Y-117890402D01*
X205610000Y-118015981D01*
X205610000Y-118144019D01*
X205634979Y-118269598D01*
X205659999Y-118330000D01*
X204780898Y-118330000D01*
X204796934Y-118431247D01*
X204869897Y-118655802D01*
X204977085Y-118866171D01*
X205115866Y-119057186D01*
X205282813Y-119224133D01*
X205473828Y-119362914D01*
X205684195Y-119470102D01*
X205908744Y-119543063D01*
X205908750Y-119543065D01*
X206010000Y-119559101D01*
X206010000Y-118680001D01*
X206070402Y-118705021D01*
X206195981Y-118730000D01*
X206324019Y-118730000D01*
X206449598Y-118705021D01*
X206510000Y-118680001D01*
X206510000Y-119559100D01*
X206611249Y-119543065D01*
X206611255Y-119543063D01*
X206835804Y-119470102D01*
X207046171Y-119362914D01*
X207237186Y-119224133D01*
X207404133Y-119057186D01*
X207542914Y-118866171D01*
X207650102Y-118655802D01*
X207723065Y-118431247D01*
X207739102Y-118330000D01*
X206860001Y-118330000D01*
X206885021Y-118269598D01*
X206910000Y-118144019D01*
X206910000Y-118015981D01*
X206903940Y-117985513D01*
X210058500Y-117985513D01*
X210058500Y-118174486D01*
X210088059Y-118361118D01*
X210146454Y-118540836D01*
X210205033Y-118655802D01*
X210232240Y-118709199D01*
X210343310Y-118862073D01*
X210476927Y-118995690D01*
X210629801Y-119106760D01*
X210676394Y-119130500D01*
X210798163Y-119192545D01*
X210798165Y-119192545D01*
X210798168Y-119192547D01*
X210860851Y-119212914D01*
X210977881Y-119250940D01*
X211164514Y-119280500D01*
X211164519Y-119280500D01*
X211353486Y-119280500D01*
X211540118Y-119250940D01*
X211719832Y-119192547D01*
X211888199Y-119106760D01*
X212041073Y-118995690D01*
X212174690Y-118862073D01*
X212285760Y-118709199D01*
X212371547Y-118540832D01*
X212429940Y-118361118D01*
X212449457Y-118237890D01*
X212459500Y-118174485D01*
X212459500Y-117985514D01*
X212443811Y-117886462D01*
X212443811Y-117886460D01*
X212434869Y-117830000D01*
X214780898Y-117830000D01*
X215659999Y-117830000D01*
X215634979Y-117890402D01*
X215610000Y-118015981D01*
X215610000Y-118144019D01*
X215634979Y-118269598D01*
X215659999Y-118330000D01*
X214780898Y-118330000D01*
X214796934Y-118431247D01*
X214869897Y-118655802D01*
X214977085Y-118866171D01*
X215115866Y-119057186D01*
X215282813Y-119224133D01*
X215473828Y-119362914D01*
X215684195Y-119470102D01*
X215908744Y-119543063D01*
X215908750Y-119543065D01*
X216010000Y-119559101D01*
X216010000Y-118680001D01*
X216070402Y-118705021D01*
X216195981Y-118730000D01*
X216324019Y-118730000D01*
X216449598Y-118705021D01*
X216510000Y-118680001D01*
X216510000Y-119559100D01*
X216611249Y-119543065D01*
X216611255Y-119543063D01*
X216835804Y-119470102D01*
X217046171Y-119362914D01*
X217237186Y-119224133D01*
X217404133Y-119057186D01*
X217542914Y-118866171D01*
X217650102Y-118655802D01*
X217723065Y-118431247D01*
X217739102Y-118330000D01*
X216860001Y-118330000D01*
X216885021Y-118269598D01*
X216910000Y-118144019D01*
X216910000Y-118015981D01*
X216885021Y-117890402D01*
X216860001Y-117830000D01*
X217739102Y-117830000D01*
X217723065Y-117728752D01*
X217650102Y-117504197D01*
X217542914Y-117293828D01*
X217404133Y-117102813D01*
X217237186Y-116935866D01*
X217046171Y-116797085D01*
X216835802Y-116689897D01*
X216611247Y-116616934D01*
X216510000Y-116600897D01*
X216510000Y-117479998D01*
X216449598Y-117454979D01*
X216324019Y-117430000D01*
X216195981Y-117430000D01*
X216070402Y-117454979D01*
X216010000Y-117479998D01*
X216010000Y-116600897D01*
X215908752Y-116616934D01*
X215684197Y-116689897D01*
X215473828Y-116797085D01*
X215282813Y-116935866D01*
X215115866Y-117102813D01*
X214977085Y-117293828D01*
X214869897Y-117504197D01*
X214796934Y-117728752D01*
X214780898Y-117830000D01*
X212434869Y-117830000D01*
X212429940Y-117798882D01*
X212429940Y-117798881D01*
X212391313Y-117680000D01*
X212371547Y-117619168D01*
X212371545Y-117619165D01*
X212371545Y-117619163D01*
X212318802Y-117515649D01*
X212285760Y-117450801D01*
X212174690Y-117297927D01*
X212041073Y-117164310D01*
X211888199Y-117053240D01*
X211719836Y-116967454D01*
X211540118Y-116909059D01*
X211353486Y-116879500D01*
X211353481Y-116879500D01*
X211164519Y-116879500D01*
X211164514Y-116879500D01*
X210977881Y-116909059D01*
X210798163Y-116967454D01*
X210629800Y-117053240D01*
X210561570Y-117102813D01*
X210476927Y-117164310D01*
X210476925Y-117164312D01*
X210476924Y-117164312D01*
X210343312Y-117297924D01*
X210343312Y-117297925D01*
X210343310Y-117297927D01*
X210302586Y-117353978D01*
X210232240Y-117450800D01*
X210146454Y-117619163D01*
X210088059Y-117798881D01*
X210058500Y-117985513D01*
X206903940Y-117985513D01*
X206885021Y-117890402D01*
X206860001Y-117830000D01*
X207739102Y-117830000D01*
X207723065Y-117728752D01*
X207650102Y-117504197D01*
X207542914Y-117293828D01*
X207404133Y-117102813D01*
X207237186Y-116935866D01*
X207046171Y-116797085D01*
X206835802Y-116689897D01*
X206611247Y-116616934D01*
X206510000Y-116600897D01*
X206510000Y-117479998D01*
X206449598Y-117454979D01*
X206324019Y-117430000D01*
X206195981Y-117430000D01*
X206070402Y-117454979D01*
X206010000Y-117479998D01*
X206010000Y-116600897D01*
X205908752Y-116616934D01*
X205684197Y-116689897D01*
X205473828Y-116797085D01*
X205282813Y-116935866D01*
X205115866Y-117102813D01*
X204977085Y-117293828D01*
X204869897Y-117504197D01*
X204796934Y-117728752D01*
X204780898Y-117830000D01*
X202434869Y-117830000D01*
X202429940Y-117798882D01*
X202371547Y-117619168D01*
X202371545Y-117619165D01*
X202371545Y-117619163D01*
X202318802Y-117515649D01*
X202285760Y-117450801D01*
X202174690Y-117297927D01*
X202041073Y-117164310D01*
X201888199Y-117053240D01*
X201719836Y-116967454D01*
X201540118Y-116909059D01*
X201353486Y-116879500D01*
X201353481Y-116879500D01*
X201164519Y-116879500D01*
X201164514Y-116879500D01*
X200977881Y-116909059D01*
X200798163Y-116967454D01*
X200629800Y-117053240D01*
X200561570Y-117102813D01*
X200476927Y-117164310D01*
X200476925Y-117164312D01*
X200476924Y-117164312D01*
X200343312Y-117297924D01*
X200343312Y-117297925D01*
X200343310Y-117297927D01*
X200302586Y-117353978D01*
X200232240Y-117450800D01*
X200146454Y-117619163D01*
X200088059Y-117798881D01*
X200058500Y-117985513D01*
X196903940Y-117985513D01*
X196885021Y-117890402D01*
X196860001Y-117830000D01*
X197739102Y-117830000D01*
X197723065Y-117728752D01*
X197650102Y-117504197D01*
X197542914Y-117293828D01*
X197404133Y-117102813D01*
X197237186Y-116935866D01*
X197046171Y-116797085D01*
X196835802Y-116689897D01*
X196611247Y-116616934D01*
X196510000Y-116600897D01*
X196510000Y-117479998D01*
X196449598Y-117454979D01*
X196324019Y-117430000D01*
X196195981Y-117430000D01*
X196070402Y-117454979D01*
X196010000Y-117479998D01*
X196010000Y-116600897D01*
X195908752Y-116616934D01*
X195684197Y-116689897D01*
X195473828Y-116797085D01*
X195282813Y-116935866D01*
X195115866Y-117102813D01*
X194977085Y-117293828D01*
X194869897Y-117504197D01*
X194796934Y-117728752D01*
X194780898Y-117830000D01*
X192434869Y-117830000D01*
X192429940Y-117798882D01*
X192371547Y-117619168D01*
X192371545Y-117619165D01*
X192371545Y-117619163D01*
X192318802Y-117515649D01*
X192285760Y-117450801D01*
X192174690Y-117297927D01*
X192041073Y-117164310D01*
X191888199Y-117053240D01*
X191719836Y-116967454D01*
X191540118Y-116909059D01*
X191353486Y-116879500D01*
X191353481Y-116879500D01*
X191164519Y-116879500D01*
X191164514Y-116879500D01*
X190977881Y-116909059D01*
X190798163Y-116967454D01*
X190629800Y-117053240D01*
X190561570Y-117102813D01*
X190476927Y-117164310D01*
X190476925Y-117164312D01*
X190476924Y-117164312D01*
X190343312Y-117297924D01*
X190343312Y-117297925D01*
X190343310Y-117297927D01*
X190302586Y-117353978D01*
X190232240Y-117450800D01*
X190146454Y-117619163D01*
X190088059Y-117798881D01*
X190058500Y-117985513D01*
X182020000Y-117985513D01*
X182020000Y-117865981D01*
X181995021Y-117740402D01*
X181970001Y-117680000D01*
X182849102Y-117680000D01*
X182833065Y-117578752D01*
X182760102Y-117354197D01*
X182652914Y-117143828D01*
X182514133Y-116952813D01*
X182347186Y-116785866D01*
X182156171Y-116647085D01*
X181945802Y-116539897D01*
X181721247Y-116466934D01*
X181620000Y-116450897D01*
X181620000Y-117329998D01*
X181559598Y-117304979D01*
X181434019Y-117280000D01*
X181305981Y-117280000D01*
X181180402Y-117304979D01*
X181120000Y-117329998D01*
X181120000Y-116450897D01*
X181018752Y-116466934D01*
X180794197Y-116539897D01*
X180583828Y-116647085D01*
X180392813Y-116785866D01*
X180225866Y-116952813D01*
X180087085Y-117143828D01*
X179979897Y-117354197D01*
X179906934Y-117578752D01*
X179890898Y-117680000D01*
X177544869Y-117680000D01*
X177539940Y-117648882D01*
X177539940Y-117648881D01*
X177512846Y-117565497D01*
X177481547Y-117469168D01*
X177481545Y-117469165D01*
X177481545Y-117469163D01*
X177436290Y-117380347D01*
X177395760Y-117300801D01*
X177284690Y-117147927D01*
X177151073Y-117014310D01*
X176998199Y-116903240D01*
X176829836Y-116817454D01*
X176650118Y-116759059D01*
X176463486Y-116729500D01*
X176463481Y-116729500D01*
X176274519Y-116729500D01*
X176274514Y-116729500D01*
X176087881Y-116759059D01*
X175908163Y-116817454D01*
X175739800Y-116903240D01*
X175731790Y-116909060D01*
X175586927Y-117014310D01*
X175586925Y-117014312D01*
X175586924Y-117014312D01*
X175453312Y-117147924D01*
X175453312Y-117147925D01*
X175453310Y-117147927D01*
X175441407Y-117164310D01*
X175342240Y-117300800D01*
X175256454Y-117469163D01*
X175198059Y-117648881D01*
X175168500Y-117835513D01*
X172013940Y-117835513D01*
X171995021Y-117740402D01*
X171970001Y-117680000D01*
X172849102Y-117680000D01*
X172833065Y-117578752D01*
X172760102Y-117354197D01*
X172652914Y-117143828D01*
X172514133Y-116952813D01*
X172347186Y-116785866D01*
X172156171Y-116647085D01*
X171945802Y-116539897D01*
X171721247Y-116466934D01*
X171620000Y-116450897D01*
X171620000Y-117329998D01*
X171559598Y-117304979D01*
X171434019Y-117280000D01*
X171305981Y-117280000D01*
X171180402Y-117304979D01*
X171120000Y-117329998D01*
X171120000Y-116450897D01*
X171018752Y-116466934D01*
X170794197Y-116539897D01*
X170583828Y-116647085D01*
X170392813Y-116785866D01*
X170225866Y-116952813D01*
X170087085Y-117143828D01*
X169979897Y-117354197D01*
X169906934Y-117578752D01*
X169890898Y-117680000D01*
X167544869Y-117680000D01*
X167539940Y-117648882D01*
X167481547Y-117469168D01*
X167481545Y-117469165D01*
X167481545Y-117469163D01*
X167436290Y-117380347D01*
X167395760Y-117300801D01*
X167284690Y-117147927D01*
X167151073Y-117014310D01*
X166998199Y-116903240D01*
X166829836Y-116817454D01*
X166650118Y-116759059D01*
X166463486Y-116729500D01*
X166463481Y-116729500D01*
X166274519Y-116729500D01*
X166274514Y-116729500D01*
X166087881Y-116759059D01*
X165908163Y-116817454D01*
X165739800Y-116903240D01*
X165731790Y-116909060D01*
X165586927Y-117014310D01*
X165586925Y-117014312D01*
X165586924Y-117014312D01*
X165453312Y-117147924D01*
X165453312Y-117147925D01*
X165453310Y-117147927D01*
X165441407Y-117164310D01*
X165342240Y-117300800D01*
X165256454Y-117469163D01*
X165198059Y-117648881D01*
X165168500Y-117835513D01*
X162013940Y-117835513D01*
X161995021Y-117740402D01*
X161970001Y-117680000D01*
X162849102Y-117680000D01*
X162833065Y-117578752D01*
X162760102Y-117354197D01*
X162652914Y-117143828D01*
X162514133Y-116952813D01*
X162347186Y-116785866D01*
X162156171Y-116647085D01*
X161945802Y-116539897D01*
X161721247Y-116466934D01*
X161620000Y-116450897D01*
X161620000Y-117329998D01*
X161559598Y-117304979D01*
X161434019Y-117280000D01*
X161305981Y-117280000D01*
X161180402Y-117304979D01*
X161120000Y-117329998D01*
X161120000Y-116450897D01*
X161018752Y-116466934D01*
X160794197Y-116539897D01*
X160583828Y-116647085D01*
X160392813Y-116785866D01*
X160225866Y-116952813D01*
X160087085Y-117143828D01*
X159979897Y-117354197D01*
X159906934Y-117578752D01*
X159890898Y-117680000D01*
X157544869Y-117680000D01*
X157539940Y-117648882D01*
X157481547Y-117469168D01*
X157481545Y-117469165D01*
X157481545Y-117469163D01*
X157436290Y-117380347D01*
X157395760Y-117300801D01*
X157284690Y-117147927D01*
X157151073Y-117014310D01*
X156998199Y-116903240D01*
X156829836Y-116817454D01*
X156650118Y-116759059D01*
X156463486Y-116729500D01*
X156463481Y-116729500D01*
X156274519Y-116729500D01*
X156274514Y-116729500D01*
X156087881Y-116759059D01*
X155908163Y-116817454D01*
X155739800Y-116903240D01*
X155731790Y-116909060D01*
X155586927Y-117014310D01*
X155586925Y-117014312D01*
X155586924Y-117014312D01*
X155453312Y-117147924D01*
X155453312Y-117147925D01*
X155453310Y-117147927D01*
X155441407Y-117164310D01*
X155342240Y-117300800D01*
X155256454Y-117469163D01*
X155198059Y-117648881D01*
X155168500Y-117835513D01*
X151500500Y-117835513D01*
X151500500Y-85350000D01*
X154590000Y-85350000D01*
X154710000Y-111240000D01*
X154710001Y-111240000D01*
X155419925Y-111240000D01*
X155420000Y-111240000D01*
X179618010Y-111210454D01*
X179617007Y-111120021D01*
X179331777Y-85390371D01*
X155369409Y-85370689D01*
X155366214Y-85370645D01*
X154590000Y-85349999D01*
X154590000Y-85350000D01*
X151500500Y-85350000D01*
X151500500Y-63724056D01*
X151520185Y-63657017D01*
X151572989Y-63611262D01*
X151624346Y-63600057D01*
X223040270Y-63516225D01*
X223042845Y-59944108D01*
X228369500Y-59944108D01*
X228369500Y-60075891D01*
X228403608Y-60203187D01*
X228419013Y-60229868D01*
X228469500Y-60317314D01*
X228562686Y-60410500D01*
X228676814Y-60476392D01*
X228804108Y-60510500D01*
X228804110Y-60510500D01*
X228944020Y-60510500D01*
X228944020Y-60514189D01*
X228996129Y-60521903D01*
X229031830Y-60546801D01*
X230133181Y-61648152D01*
X230166666Y-61709475D01*
X230169500Y-61735833D01*
X230169500Y-71098498D01*
X230165275Y-71130591D01*
X230129500Y-71264108D01*
X230129500Y-71395891D01*
X230163608Y-71523187D01*
X230196554Y-71580250D01*
X230229500Y-71637314D01*
X230322686Y-71730500D01*
X230436814Y-71796392D01*
X230564108Y-71830500D01*
X230564110Y-71830500D01*
X230695890Y-71830500D01*
X230695892Y-71830500D01*
X230823186Y-71796392D01*
X230937314Y-71730500D01*
X231030500Y-71637314D01*
X231096392Y-71523186D01*
X231130500Y-71395892D01*
X231130500Y-71264108D01*
X231096392Y-71136814D01*
X231030500Y-71022686D01*
X230937314Y-70929500D01*
X230932494Y-70926717D01*
X230884282Y-70876148D01*
X230870500Y-70819333D01*
X230870500Y-70254108D01*
X236059500Y-70254108D01*
X236059500Y-70385891D01*
X236093608Y-70513187D01*
X236122476Y-70563186D01*
X236159500Y-70627314D01*
X236252686Y-70720500D01*
X236366814Y-70786392D01*
X236494108Y-70820500D01*
X236494110Y-70820500D01*
X236625890Y-70820500D01*
X236625892Y-70820500D01*
X236753186Y-70786392D01*
X236867314Y-70720500D01*
X236960500Y-70627314D01*
X237026392Y-70513186D01*
X237060500Y-70385892D01*
X237060500Y-70254108D01*
X237026392Y-70126814D01*
X236960500Y-70012686D01*
X236960498Y-70012684D01*
X236960497Y-70012682D01*
X236956124Y-70006983D01*
X236930930Y-69941814D01*
X236930500Y-69931497D01*
X236930500Y-65266440D01*
X236950185Y-65199401D01*
X236992501Y-65159052D01*
X237007314Y-65150500D01*
X237100500Y-65057314D01*
X237166392Y-64943186D01*
X237200500Y-64815892D01*
X237200500Y-64684108D01*
X237166392Y-64556814D01*
X237100500Y-64442686D01*
X237007314Y-64349500D01*
X236950250Y-64316554D01*
X236893187Y-64283608D01*
X236829539Y-64266554D01*
X236765892Y-64249500D01*
X236634108Y-64249500D01*
X236506812Y-64283608D01*
X236392686Y-64349500D01*
X236392683Y-64349502D01*
X236299502Y-64442683D01*
X236299500Y-64442686D01*
X236233608Y-64556812D01*
X236199500Y-64684108D01*
X236199500Y-64815891D01*
X236233608Y-64943187D01*
X236299500Y-65057314D01*
X236303873Y-65063012D01*
X236329070Y-65128180D01*
X236329500Y-65138502D01*
X236329500Y-69803560D01*
X236309815Y-69870599D01*
X236267502Y-69910945D01*
X236252686Y-69919500D01*
X236252683Y-69919502D01*
X236159502Y-70012683D01*
X236159500Y-70012686D01*
X236093608Y-70126812D01*
X236059500Y-70254108D01*
X230870500Y-70254108D01*
X230870500Y-61563858D01*
X230870500Y-61563856D01*
X230846614Y-61474712D01*
X230846611Y-61474706D01*
X230800473Y-61394794D01*
X230800470Y-61394791D01*
X230800469Y-61394788D01*
X230735212Y-61329531D01*
X230735210Y-61329530D01*
X230735208Y-61329528D01*
X230691679Y-61304397D01*
X230655288Y-61283386D01*
X230655285Y-61283385D01*
X230655283Y-61283384D01*
X230636929Y-61278466D01*
X230581344Y-61246373D01*
X229705218Y-60370247D01*
X235819500Y-60370247D01*
X235819500Y-62109752D01*
X235831131Y-62168229D01*
X235831132Y-62168230D01*
X235875447Y-62234552D01*
X235941769Y-62278867D01*
X235941770Y-62278868D01*
X236000247Y-62290499D01*
X236000250Y-62290500D01*
X236000252Y-62290500D01*
X237739750Y-62290500D01*
X237739751Y-62290499D01*
X237754568Y-62287552D01*
X237798229Y-62278868D01*
X237798229Y-62278867D01*
X237798231Y-62278867D01*
X237864552Y-62234552D01*
X237908867Y-62168231D01*
X237908867Y-62168229D01*
X237908868Y-62168229D01*
X237920499Y-62109752D01*
X237920500Y-62109750D01*
X237920500Y-61136530D01*
X238359500Y-61136530D01*
X238359500Y-61343469D01*
X238399868Y-61546412D01*
X238399870Y-61546420D01*
X238479058Y-61737596D01*
X238594024Y-61909657D01*
X238740342Y-62055975D01*
X238740345Y-62055977D01*
X238912402Y-62170941D01*
X239103580Y-62250130D01*
X239248052Y-62278867D01*
X239306530Y-62290499D01*
X239306534Y-62290500D01*
X239306535Y-62290500D01*
X239513466Y-62290500D01*
X239513467Y-62290499D01*
X239716420Y-62250130D01*
X239907598Y-62170941D01*
X240079655Y-62055977D01*
X240225977Y-61909655D01*
X240340941Y-61737598D01*
X240420130Y-61546420D01*
X240460500Y-61343465D01*
X240460500Y-61136535D01*
X240460499Y-61136530D01*
X240899500Y-61136530D01*
X240899500Y-61343469D01*
X240939868Y-61546412D01*
X240939870Y-61546420D01*
X241019058Y-61737596D01*
X241134024Y-61909657D01*
X241280342Y-62055975D01*
X241280345Y-62055977D01*
X241452402Y-62170941D01*
X241643580Y-62250130D01*
X241788052Y-62278867D01*
X241846530Y-62290499D01*
X241846534Y-62290500D01*
X241846535Y-62290500D01*
X242053466Y-62290500D01*
X242053467Y-62290499D01*
X242256420Y-62250130D01*
X242447598Y-62170941D01*
X242619655Y-62055977D01*
X242765977Y-61909655D01*
X242880941Y-61737598D01*
X242960130Y-61546420D01*
X243000500Y-61343465D01*
X243000500Y-61136535D01*
X243000499Y-61136530D01*
X243439500Y-61136530D01*
X243439500Y-61343469D01*
X243479868Y-61546412D01*
X243479870Y-61546420D01*
X243559058Y-61737596D01*
X243674024Y-61909657D01*
X243820342Y-62055975D01*
X243820345Y-62055977D01*
X243992402Y-62170941D01*
X244183580Y-62250130D01*
X244328052Y-62278867D01*
X244386530Y-62290499D01*
X244386534Y-62290500D01*
X244386535Y-62290500D01*
X244593466Y-62290500D01*
X244593467Y-62290499D01*
X244796420Y-62250130D01*
X244987598Y-62170941D01*
X245159655Y-62055977D01*
X245305977Y-61909655D01*
X245420941Y-61737598D01*
X245500130Y-61546420D01*
X245540500Y-61343465D01*
X245540500Y-61136535D01*
X245540499Y-61136530D01*
X245979500Y-61136530D01*
X245979500Y-61343469D01*
X246019868Y-61546412D01*
X246019870Y-61546420D01*
X246099058Y-61737596D01*
X246214024Y-61909657D01*
X246360342Y-62055975D01*
X246360345Y-62055977D01*
X246532402Y-62170941D01*
X246723580Y-62250130D01*
X246868052Y-62278867D01*
X246926530Y-62290499D01*
X246926534Y-62290500D01*
X246926535Y-62290500D01*
X247133466Y-62290500D01*
X247133467Y-62290499D01*
X247336420Y-62250130D01*
X247527598Y-62170941D01*
X247699655Y-62055977D01*
X247845977Y-61909655D01*
X247960941Y-61737598D01*
X248040130Y-61546420D01*
X248080500Y-61343465D01*
X248080500Y-61136535D01*
X248080499Y-61136530D01*
X248519500Y-61136530D01*
X248519500Y-61343469D01*
X248559868Y-61546412D01*
X248559870Y-61546420D01*
X248639058Y-61737596D01*
X248754024Y-61909657D01*
X248900342Y-62055975D01*
X248900345Y-62055977D01*
X249072402Y-62170941D01*
X249263580Y-62250130D01*
X249408052Y-62278867D01*
X249466530Y-62290499D01*
X249466534Y-62290500D01*
X249466535Y-62290500D01*
X249673466Y-62290500D01*
X249673467Y-62290499D01*
X249876420Y-62250130D01*
X250067598Y-62170941D01*
X250239655Y-62055977D01*
X250385977Y-61909655D01*
X250500941Y-61737598D01*
X250580130Y-61546420D01*
X250620500Y-61343465D01*
X250620500Y-61136535D01*
X250580130Y-60933580D01*
X250500941Y-60742402D01*
X250385977Y-60570345D01*
X250385975Y-60570342D01*
X250239657Y-60424024D01*
X250153626Y-60366541D01*
X250067598Y-60309059D01*
X249876420Y-60229870D01*
X249876412Y-60229868D01*
X249673469Y-60189500D01*
X249673465Y-60189500D01*
X249466535Y-60189500D01*
X249466530Y-60189500D01*
X249263587Y-60229868D01*
X249263579Y-60229870D01*
X249072403Y-60309058D01*
X248900342Y-60424024D01*
X248754024Y-60570342D01*
X248639058Y-60742403D01*
X248559870Y-60933579D01*
X248559868Y-60933587D01*
X248519500Y-61136530D01*
X248080499Y-61136530D01*
X248040130Y-60933580D01*
X247960941Y-60742402D01*
X247845977Y-60570345D01*
X247845975Y-60570342D01*
X247699657Y-60424024D01*
X247613626Y-60366541D01*
X247527598Y-60309059D01*
X247336420Y-60229870D01*
X247336412Y-60229868D01*
X247133469Y-60189500D01*
X247133465Y-60189500D01*
X246926535Y-60189500D01*
X246926530Y-60189500D01*
X246723587Y-60229868D01*
X246723579Y-60229870D01*
X246532403Y-60309058D01*
X246360342Y-60424024D01*
X246214024Y-60570342D01*
X246099058Y-60742403D01*
X246019870Y-60933579D01*
X246019868Y-60933587D01*
X245979500Y-61136530D01*
X245540499Y-61136530D01*
X245500130Y-60933580D01*
X245420941Y-60742402D01*
X245305977Y-60570345D01*
X245305975Y-60570342D01*
X245159657Y-60424024D01*
X245073626Y-60366541D01*
X244987598Y-60309059D01*
X244796420Y-60229870D01*
X244796412Y-60229868D01*
X244593469Y-60189500D01*
X244593465Y-60189500D01*
X244386535Y-60189500D01*
X244386530Y-60189500D01*
X244183587Y-60229868D01*
X244183579Y-60229870D01*
X243992403Y-60309058D01*
X243820342Y-60424024D01*
X243674024Y-60570342D01*
X243559058Y-60742403D01*
X243479870Y-60933579D01*
X243479868Y-60933587D01*
X243439500Y-61136530D01*
X243000499Y-61136530D01*
X242960130Y-60933580D01*
X242880941Y-60742402D01*
X242765977Y-60570345D01*
X242765975Y-60570342D01*
X242619657Y-60424024D01*
X242533626Y-60366541D01*
X242447598Y-60309059D01*
X242256420Y-60229870D01*
X242256412Y-60229868D01*
X242053469Y-60189500D01*
X242053465Y-60189500D01*
X241846535Y-60189500D01*
X241846530Y-60189500D01*
X241643587Y-60229868D01*
X241643579Y-60229870D01*
X241452403Y-60309058D01*
X241280342Y-60424024D01*
X241134024Y-60570342D01*
X241019058Y-60742403D01*
X240939870Y-60933579D01*
X240939868Y-60933587D01*
X240899500Y-61136530D01*
X240460499Y-61136530D01*
X240420130Y-60933580D01*
X240340941Y-60742402D01*
X240225977Y-60570345D01*
X240225975Y-60570342D01*
X240079657Y-60424024D01*
X239993626Y-60366541D01*
X239907598Y-60309059D01*
X239716420Y-60229870D01*
X239716412Y-60229868D01*
X239513469Y-60189500D01*
X239513465Y-60189500D01*
X239306535Y-60189500D01*
X239306530Y-60189500D01*
X239103587Y-60229868D01*
X239103579Y-60229870D01*
X238912403Y-60309058D01*
X238740342Y-60424024D01*
X238594024Y-60570342D01*
X238479058Y-60742403D01*
X238399870Y-60933579D01*
X238399868Y-60933587D01*
X238359500Y-61136530D01*
X237920500Y-61136530D01*
X237920500Y-60370249D01*
X237920499Y-60370247D01*
X237908868Y-60311770D01*
X237908867Y-60311769D01*
X237864552Y-60245447D01*
X237798230Y-60201132D01*
X237798229Y-60201131D01*
X237739752Y-60189500D01*
X237739748Y-60189500D01*
X236000252Y-60189500D01*
X236000247Y-60189500D01*
X235941770Y-60201131D01*
X235941769Y-60201132D01*
X235875447Y-60245447D01*
X235831132Y-60311769D01*
X235831131Y-60311770D01*
X235819500Y-60370247D01*
X229705218Y-60370247D01*
X229406819Y-60071848D01*
X229373334Y-60010525D01*
X229370500Y-59984167D01*
X229370500Y-59944110D01*
X229370500Y-59944108D01*
X229336392Y-59816814D01*
X229270500Y-59702686D01*
X229177314Y-59609500D01*
X229120250Y-59576554D01*
X229063187Y-59543608D01*
X228999539Y-59526554D01*
X228935892Y-59509500D01*
X228804108Y-59509500D01*
X228676812Y-59543608D01*
X228562686Y-59609500D01*
X228562683Y-59609502D01*
X228469502Y-59702683D01*
X228469500Y-59702686D01*
X228403608Y-59816812D01*
X228369500Y-59944108D01*
X223042845Y-59944108D01*
X223043817Y-58596530D01*
X235819500Y-58596530D01*
X235819500Y-58803469D01*
X235859868Y-59006412D01*
X235859870Y-59006420D01*
X235939058Y-59197596D01*
X236054024Y-59369657D01*
X236200342Y-59515975D01*
X236200345Y-59515977D01*
X236372402Y-59630941D01*
X236563580Y-59710130D01*
X236766530Y-59750499D01*
X236766534Y-59750500D01*
X236766535Y-59750500D01*
X236973466Y-59750500D01*
X236973467Y-59750499D01*
X237176420Y-59710130D01*
X237367598Y-59630941D01*
X237539655Y-59515977D01*
X237685977Y-59369655D01*
X237800941Y-59197598D01*
X237880130Y-59006420D01*
X237920500Y-58803465D01*
X237920500Y-58596535D01*
X237920499Y-58596530D01*
X238359500Y-58596530D01*
X238359500Y-58803469D01*
X238399868Y-59006412D01*
X238399870Y-59006420D01*
X238479058Y-59197596D01*
X238594024Y-59369657D01*
X238740342Y-59515975D01*
X238740345Y-59515977D01*
X238912402Y-59630941D01*
X239103580Y-59710130D01*
X239306530Y-59750499D01*
X239306534Y-59750500D01*
X239306535Y-59750500D01*
X239513466Y-59750500D01*
X239513467Y-59750499D01*
X239716420Y-59710130D01*
X239907598Y-59630941D01*
X240079655Y-59515977D01*
X240225977Y-59369655D01*
X240340941Y-59197598D01*
X240420130Y-59006420D01*
X240460500Y-58803465D01*
X240460500Y-58596535D01*
X240460499Y-58596530D01*
X240899500Y-58596530D01*
X240899500Y-58803469D01*
X240939868Y-59006412D01*
X240939870Y-59006420D01*
X241019058Y-59197596D01*
X241134024Y-59369657D01*
X241280342Y-59515975D01*
X241280345Y-59515977D01*
X241452402Y-59630941D01*
X241643580Y-59710130D01*
X241846530Y-59750499D01*
X241846534Y-59750500D01*
X241846535Y-59750500D01*
X242053466Y-59750500D01*
X242053467Y-59750499D01*
X242256420Y-59710130D01*
X242447598Y-59630941D01*
X242619655Y-59515977D01*
X242765977Y-59369655D01*
X242880941Y-59197598D01*
X242960130Y-59006420D01*
X243000500Y-58803465D01*
X243000500Y-58596535D01*
X243000499Y-58596530D01*
X243439500Y-58596530D01*
X243439500Y-58803469D01*
X243479868Y-59006412D01*
X243479870Y-59006420D01*
X243559058Y-59197596D01*
X243674024Y-59369657D01*
X243820342Y-59515975D01*
X243820345Y-59515977D01*
X243992402Y-59630941D01*
X244183580Y-59710130D01*
X244386530Y-59750499D01*
X244386534Y-59750500D01*
X244386535Y-59750500D01*
X244593466Y-59750500D01*
X244593467Y-59750499D01*
X244796420Y-59710130D01*
X244987598Y-59630941D01*
X245159655Y-59515977D01*
X245305977Y-59369655D01*
X245420941Y-59197598D01*
X245500130Y-59006420D01*
X245540500Y-58803465D01*
X245540500Y-58596535D01*
X245540499Y-58596530D01*
X245979500Y-58596530D01*
X245979500Y-58803469D01*
X246019868Y-59006412D01*
X246019870Y-59006420D01*
X246099058Y-59197596D01*
X246214024Y-59369657D01*
X246360342Y-59515975D01*
X246360345Y-59515977D01*
X246532402Y-59630941D01*
X246723580Y-59710130D01*
X246926530Y-59750499D01*
X246926534Y-59750500D01*
X246926535Y-59750500D01*
X247133466Y-59750500D01*
X247133467Y-59750499D01*
X247336420Y-59710130D01*
X247527598Y-59630941D01*
X247699655Y-59515977D01*
X247845977Y-59369655D01*
X247960941Y-59197598D01*
X248040130Y-59006420D01*
X248080500Y-58803465D01*
X248080500Y-58596535D01*
X248080499Y-58596530D01*
X248519500Y-58596530D01*
X248519500Y-58803469D01*
X248559868Y-59006412D01*
X248559870Y-59006420D01*
X248639058Y-59197596D01*
X248754024Y-59369657D01*
X248900342Y-59515975D01*
X248900345Y-59515977D01*
X249072402Y-59630941D01*
X249263580Y-59710130D01*
X249466530Y-59750499D01*
X249466534Y-59750500D01*
X249466535Y-59750500D01*
X249673466Y-59750500D01*
X249673467Y-59750499D01*
X249876420Y-59710130D01*
X250067598Y-59630941D01*
X250239655Y-59515977D01*
X250385977Y-59369655D01*
X250500941Y-59197598D01*
X250580130Y-59006420D01*
X250620500Y-58803465D01*
X250620500Y-58596535D01*
X250580130Y-58393580D01*
X250500941Y-58202402D01*
X250385977Y-58030345D01*
X250385975Y-58030342D01*
X250239657Y-57884024D01*
X250072616Y-57772412D01*
X250067598Y-57769059D01*
X249939237Y-57715890D01*
X249876420Y-57689870D01*
X249876412Y-57689868D01*
X249673469Y-57649500D01*
X249673465Y-57649500D01*
X249466535Y-57649500D01*
X249466530Y-57649500D01*
X249263587Y-57689868D01*
X249263579Y-57689870D01*
X249072403Y-57769058D01*
X248900342Y-57884024D01*
X248754024Y-58030342D01*
X248639058Y-58202403D01*
X248559870Y-58393579D01*
X248559868Y-58393587D01*
X248519500Y-58596530D01*
X248080499Y-58596530D01*
X248040130Y-58393580D01*
X247960941Y-58202402D01*
X247845977Y-58030345D01*
X247845975Y-58030342D01*
X247699657Y-57884024D01*
X247532616Y-57772412D01*
X247527598Y-57769059D01*
X247399237Y-57715890D01*
X247336420Y-57689870D01*
X247336412Y-57689868D01*
X247133469Y-57649500D01*
X247133465Y-57649500D01*
X246926535Y-57649500D01*
X246926530Y-57649500D01*
X246723587Y-57689868D01*
X246723579Y-57689870D01*
X246532403Y-57769058D01*
X246360342Y-57884024D01*
X246214024Y-58030342D01*
X246099058Y-58202403D01*
X246019870Y-58393579D01*
X246019868Y-58393587D01*
X245979500Y-58596530D01*
X245540499Y-58596530D01*
X245500130Y-58393580D01*
X245420941Y-58202402D01*
X245305977Y-58030345D01*
X245305975Y-58030342D01*
X245159657Y-57884024D01*
X244992616Y-57772412D01*
X244987598Y-57769059D01*
X244859237Y-57715890D01*
X244796420Y-57689870D01*
X244796412Y-57689868D01*
X244593469Y-57649500D01*
X244593465Y-57649500D01*
X244386535Y-57649500D01*
X244386530Y-57649500D01*
X244183587Y-57689868D01*
X244183579Y-57689870D01*
X243992403Y-57769058D01*
X243820342Y-57884024D01*
X243674024Y-58030342D01*
X243559058Y-58202403D01*
X243479870Y-58393579D01*
X243479868Y-58393587D01*
X243439500Y-58596530D01*
X243000499Y-58596530D01*
X242960130Y-58393580D01*
X242910194Y-58273026D01*
X242902726Y-58203559D01*
X242934001Y-58141080D01*
X242937045Y-58137924D01*
X243808152Y-57266819D01*
X243869475Y-57233334D01*
X243895833Y-57230500D01*
X251084167Y-57230500D01*
X251151206Y-57250185D01*
X251171848Y-57266819D01*
X256533181Y-62628152D01*
X256566666Y-62689475D01*
X256569500Y-62715833D01*
X256569500Y-76165141D01*
X256549815Y-76232180D01*
X256497011Y-76277935D01*
X256445500Y-76289141D01*
X256413748Y-76289141D01*
X256286452Y-76323249D01*
X256172326Y-76389141D01*
X256172323Y-76389143D01*
X256079142Y-76482324D01*
X256079140Y-76482327D01*
X256013248Y-76596453D01*
X255979140Y-76723749D01*
X255979140Y-76855532D01*
X256013248Y-76982828D01*
X256046194Y-77039891D01*
X256079140Y-77096955D01*
X256172326Y-77190141D01*
X256286454Y-77256033D01*
X256413748Y-77290141D01*
X256413750Y-77290141D01*
X256545530Y-77290141D01*
X256545532Y-77290141D01*
X256672826Y-77256033D01*
X256786954Y-77190141D01*
X256880140Y-77096955D01*
X256946032Y-76982827D01*
X256980140Y-76855533D01*
X256980140Y-76765474D01*
X256988784Y-76736033D01*
X256995308Y-76706047D01*
X256999062Y-76701031D01*
X256999825Y-76698435D01*
X257016459Y-76677793D01*
X257087819Y-76606433D01*
X257149142Y-76572948D01*
X257218834Y-76577932D01*
X257274767Y-76619804D01*
X257299184Y-76685268D01*
X257299500Y-76694114D01*
X257299500Y-80298498D01*
X257295275Y-80330591D01*
X257293608Y-80336814D01*
X257259500Y-80464108D01*
X257259500Y-80595892D01*
X257260601Y-80600000D01*
X257293608Y-80723187D01*
X257326554Y-80780250D01*
X257359500Y-80837314D01*
X257452686Y-80930500D01*
X257566814Y-80996392D01*
X257694108Y-81030500D01*
X257694110Y-81030500D01*
X257825890Y-81030500D01*
X257825892Y-81030500D01*
X257953186Y-80996392D01*
X258067314Y-80930500D01*
X258160500Y-80837314D01*
X258226392Y-80723186D01*
X258260500Y-80595892D01*
X258260500Y-80464108D01*
X258226392Y-80336814D01*
X258217111Y-80320738D01*
X258200500Y-80258741D01*
X258200500Y-69083936D01*
X258214618Y-69031246D01*
X258213282Y-69030693D01*
X258216388Y-69023192D01*
X258216392Y-69023186D01*
X258250500Y-68895892D01*
X258250500Y-68764108D01*
X258216392Y-68636814D01*
X258150500Y-68522686D01*
X258057314Y-68429500D01*
X258000250Y-68396554D01*
X257943187Y-68363608D01*
X257879539Y-68346554D01*
X257815892Y-68329500D01*
X257684108Y-68329500D01*
X257556812Y-68363608D01*
X257442686Y-68429500D01*
X257442683Y-68429502D01*
X257382181Y-68490005D01*
X257320858Y-68523490D01*
X257251166Y-68518506D01*
X257195233Y-68476634D01*
X257170816Y-68411170D01*
X257170500Y-68402324D01*
X257170500Y-62500439D01*
X257150020Y-62424009D01*
X257150017Y-62424004D01*
X257110464Y-62355495D01*
X257110458Y-62355487D01*
X251444512Y-56689541D01*
X251444504Y-56689535D01*
X251375995Y-56649982D01*
X251375990Y-56649979D01*
X251350513Y-56643152D01*
X251299562Y-56629500D01*
X243680438Y-56629500D01*
X243642224Y-56639739D01*
X243604009Y-56649979D01*
X243604004Y-56649982D01*
X243535495Y-56689535D01*
X243535487Y-56689541D01*
X242512104Y-57712923D01*
X242450781Y-57746408D01*
X242381089Y-57741424D01*
X242376971Y-57739803D01*
X242256424Y-57689871D01*
X242256412Y-57689868D01*
X242053469Y-57649500D01*
X242053465Y-57649500D01*
X241846535Y-57649500D01*
X241846530Y-57649500D01*
X241643587Y-57689868D01*
X241643579Y-57689870D01*
X241452403Y-57769058D01*
X241280342Y-57884024D01*
X241134024Y-58030342D01*
X241019058Y-58202403D01*
X240939870Y-58393579D01*
X240939868Y-58393587D01*
X240899500Y-58596530D01*
X240460499Y-58596530D01*
X240420130Y-58393580D01*
X240340941Y-58202402D01*
X240225977Y-58030345D01*
X240225975Y-58030342D01*
X240079657Y-57884024D01*
X239912616Y-57772412D01*
X239907598Y-57769059D01*
X239779237Y-57715890D01*
X239716420Y-57689870D01*
X239716412Y-57689868D01*
X239513469Y-57649500D01*
X239513465Y-57649500D01*
X239306535Y-57649500D01*
X239306530Y-57649500D01*
X239103587Y-57689868D01*
X239103579Y-57689870D01*
X238912403Y-57769058D01*
X238740342Y-57884024D01*
X238594024Y-58030342D01*
X238479058Y-58202403D01*
X238399870Y-58393579D01*
X238399868Y-58393587D01*
X238359500Y-58596530D01*
X237920499Y-58596530D01*
X237880130Y-58393580D01*
X237800941Y-58202402D01*
X237685977Y-58030345D01*
X237685975Y-58030342D01*
X237539657Y-57884024D01*
X237372616Y-57772412D01*
X237367598Y-57769059D01*
X237239237Y-57715890D01*
X237176420Y-57689870D01*
X237176412Y-57689868D01*
X236973469Y-57649500D01*
X236973465Y-57649500D01*
X236766535Y-57649500D01*
X236766530Y-57649500D01*
X236563587Y-57689868D01*
X236563579Y-57689870D01*
X236372403Y-57769058D01*
X236200342Y-57884024D01*
X236054024Y-58030342D01*
X235939058Y-58202403D01*
X235859870Y-58393579D01*
X235859868Y-58393587D01*
X235819500Y-58596530D01*
X223043817Y-58596530D01*
X223044309Y-57914108D01*
X231699500Y-57914108D01*
X231699500Y-58045892D01*
X231700735Y-58050500D01*
X231733608Y-58173187D01*
X231747578Y-58197383D01*
X231799500Y-58287314D01*
X231892686Y-58380500D01*
X232006814Y-58446392D01*
X232134108Y-58480500D01*
X232134110Y-58480500D01*
X232265889Y-58480500D01*
X232265892Y-58480500D01*
X232393186Y-58446392D01*
X232404390Y-58439923D01*
X232418155Y-58435775D01*
X232434691Y-58435657D01*
X232453937Y-58430500D01*
X233289308Y-58430500D01*
X233289309Y-58430500D01*
X233379673Y-58406286D01*
X233403887Y-58399799D01*
X233506614Y-58340489D01*
X237080284Y-54766819D01*
X237141607Y-54733334D01*
X237167965Y-54730500D01*
X252673449Y-54730500D01*
X252683345Y-54732602D01*
X252689895Y-54731595D01*
X252708597Y-54737966D01*
X252723855Y-54741207D01*
X252729804Y-54743854D01*
X252774742Y-54769799D01*
X252798955Y-54776286D01*
X252808366Y-54778807D01*
X252808369Y-54778809D01*
X252845137Y-54788660D01*
X252889320Y-54800500D01*
X252889322Y-54800500D01*
X253670679Y-54800500D01*
X253670680Y-54800500D01*
X253761044Y-54776286D01*
X253785258Y-54769799D01*
X253830197Y-54743853D01*
X253836147Y-54741206D01*
X253857015Y-54738414D01*
X253886551Y-54730500D01*
X256915500Y-54730500D01*
X256982539Y-54750185D01*
X257028294Y-54802989D01*
X257039500Y-54854500D01*
X257039500Y-57396062D01*
X257025383Y-57448751D01*
X257026719Y-57449304D01*
X257023608Y-57456814D01*
X256989500Y-57584108D01*
X256989500Y-57715891D01*
X257023608Y-57843187D01*
X257047185Y-57884023D01*
X257089500Y-57957314D01*
X257182686Y-58050500D01*
X257296814Y-58116392D01*
X257424108Y-58150500D01*
X257424110Y-58150500D01*
X257555890Y-58150500D01*
X257555892Y-58150500D01*
X257683186Y-58116392D01*
X257797314Y-58050500D01*
X257890500Y-57957314D01*
X257956392Y-57843186D01*
X257990500Y-57715892D01*
X257990500Y-57584108D01*
X257956392Y-57456814D01*
X257956388Y-57456807D01*
X257953281Y-57449304D01*
X257954616Y-57448751D01*
X257940500Y-57396062D01*
X257940500Y-54410693D01*
X257940500Y-54410691D01*
X257909799Y-54296114D01*
X257850489Y-54193387D01*
X257798113Y-54141011D01*
X257770842Y-54093771D01*
X257769504Y-54094326D01*
X257766392Y-54086815D01*
X257766392Y-54086814D01*
X257700500Y-53972686D01*
X257607314Y-53879500D01*
X257520712Y-53829500D01*
X257493187Y-53813608D01*
X257429539Y-53796554D01*
X257365892Y-53779500D01*
X257234108Y-53779500D01*
X257106814Y-53813608D01*
X257099304Y-53816719D01*
X257098750Y-53815381D01*
X257046063Y-53829500D01*
X253622062Y-53829500D01*
X253531696Y-53853713D01*
X253531695Y-53853712D01*
X253507487Y-53860199D01*
X253507480Y-53860202D01*
X253468190Y-53882887D01*
X253406190Y-53899500D01*
X253153810Y-53899500D01*
X253143913Y-53897397D01*
X253137364Y-53898405D01*
X253118661Y-53892033D01*
X253103404Y-53888793D01*
X253097449Y-53886143D01*
X253052516Y-53860201D01*
X253028302Y-53853713D01*
X253018888Y-53851190D01*
X253018887Y-53851190D01*
X252979472Y-53840629D01*
X252937938Y-53829500D01*
X236870691Y-53829500D01*
X236780325Y-53853713D01*
X236780324Y-53853712D01*
X236756116Y-53860199D01*
X236756113Y-53860200D01*
X236653386Y-53919511D01*
X236653383Y-53919513D01*
X233079716Y-57493181D01*
X233018393Y-57526666D01*
X232992035Y-57529500D01*
X232453937Y-57529500D01*
X232401249Y-57515381D01*
X232400696Y-57516719D01*
X232393188Y-57513609D01*
X232393186Y-57513608D01*
X232265892Y-57479500D01*
X232134108Y-57479500D01*
X232006812Y-57513608D01*
X231892686Y-57579500D01*
X231892683Y-57579502D01*
X231799502Y-57672683D01*
X231799500Y-57672686D01*
X231733608Y-57786812D01*
X231718503Y-57843186D01*
X231699500Y-57914108D01*
X223044309Y-57914108D01*
X223047338Y-53712338D01*
X223067071Y-53645316D01*
X223119908Y-53599600D01*
X223172274Y-53588435D01*
X232971035Y-53662453D01*
X233969999Y-53670000D01*
X233969998Y-53669999D01*
X233719708Y-53630256D01*
X233656586Y-53600302D01*
X233619678Y-53540976D01*
X233615155Y-53507791D01*
X233615155Y-46374524D01*
X233634840Y-46307485D01*
X233687644Y-46261730D01*
X233739675Y-46250525D01*
X261376028Y-46367154D01*
G37*
G04 #@! TD.AperFunction*
G04 #@! TA.AperFunction,Conductor*
G36*
X209996562Y-69777124D02*
G01*
X210063539Y-69797012D01*
X210109133Y-69849955D01*
X210120183Y-69900939D01*
X210159813Y-96541969D01*
X210140228Y-96609037D01*
X210087492Y-96654871D01*
X210034476Y-96666146D01*
X181875184Y-96362439D01*
X181808360Y-96342032D01*
X181763178Y-96288738D01*
X181752522Y-96238154D01*
X181815877Y-69815519D01*
X181835723Y-69748529D01*
X181888636Y-69702900D01*
X181940252Y-69691819D01*
X209996562Y-69777124D01*
G37*
G04 #@! TD.AperFunction*
G04 #@! TA.AperFunction,Conductor*
G36*
X209971673Y-69777049D02*
G01*
X210046112Y-69797237D01*
X210100484Y-69851941D01*
X210120220Y-69925826D01*
X210159775Y-96516660D01*
X210139923Y-96591190D01*
X210085467Y-96645809D01*
X210010997Y-96665882D01*
X210009168Y-96665873D01*
X181899974Y-96362705D01*
X181825694Y-96341941D01*
X181786231Y-96301618D01*
X181816008Y-69839830D01*
X181835958Y-69766085D01*
X181890627Y-69711678D01*
X181965169Y-69691895D01*
X209971673Y-69777049D01*
G37*
G04 #@! TD.AperFunction*
M02*
